<svg xmlns="http://www.w3.org/2000/svg" xmlns:xlink="http://www.w3.org/1999/xlink" width="612.167" height="479.7" viewBox="0 0 612.167 479.7">
  <defs>
    <linearGradient id="linear-gradient" x1="0.981" y1="0.5" x2="-0.019" y2="0.5" gradientUnits="objectBoundingBox">
      <stop offset="0" stop-color="#5761d7"/>
      <stop offset="0.178" stop-color="#5b65d8"/>
      <stop offset="0.388" stop-color="#6a72de"/>
      <stop offset="0.613" stop-color="#8188e8"/>
      <stop offset="0.849" stop-color="#a2a6f5"/>
      <stop offset="1" stop-color="#bcbeff"/>
    </linearGradient>
    <linearGradient id="linear-gradient-2" x1="0.312" y1="0.5" x2="1.312" y2="0.5" gradientUnits="objectBoundingBox">
      <stop offset="0" stop-color="#c0bff6"/>
      <stop offset="0.294" stop-color="#c4c3f6"/>
      <stop offset="0.64" stop-color="#d2d2f9"/>
      <stop offset="1" stop-color="#e9e9fd"/>
    </linearGradient>
    <linearGradient id="linear-gradient-3" y1="0.5" x2="1" y2="0.5" gradientUnits="objectBoundingBox">
      <stop offset="0" stop-color="#42e8e0"/>
      <stop offset="0.106" stop-color="#36b5bf"/>
      <stop offset="0.22" stop-color="#2c87a0"/>
      <stop offset="0.338" stop-color="#235f86"/>
      <stop offset="0.459" stop-color="#1b3e71"/>
      <stop offset="0.582" stop-color="#162560"/>
      <stop offset="0.711" stop-color="#121355"/>
      <stop offset="0.846" stop-color="#0f084e"/>
      <stop offset="1" stop-color="#0f054c"/>
    </linearGradient>
    <linearGradient id="linear-gradient-5" x1="-0.714" y1="0.5" x2="0.286" y2="0.5" xlink:href="#linear-gradient-2"/>
    <linearGradient id="linear-gradient-6" x1="-8.982" y1="0.5" x2="-7.982" y2="0.5" xlink:href="#linear-gradient"/>
    <linearGradient id="linear-gradient-7" x1="-0.024" y1="0.5" x2="0.976" y2="0.5" xlink:href="#linear-gradient"/>
    <clipPath id="clip-path">
      <path id="Path_482" data-name="Path 482" d="M528.8,173.2,358.6,74.978l-21.384,127.14L507.3,300.273Z" transform="translate(-337.215 -74.978)" fill="none"/>
    </clipPath>
    <linearGradient id="linear-gradient-9" x1="-0.793" y1="0.5" x2="0.207" y2="0.5" xlink:href="#linear-gradient"/>
    <linearGradient id="linear-gradient-10" x1="-0.456" y1="0.5" x2="0.544" y2="0.5" xlink:href="#linear-gradient-2"/>
    <linearGradient id="linear-gradient-11" x1="0.099" y1="-0.384" x2="0.893" y2="0.768" gradientUnits="objectBoundingBox">
      <stop offset="0" stop-color="#bcbeff"/>
      <stop offset="0.227" stop-color="#aaadf7"/>
      <stop offset="0.68" stop-color="#7b82e5"/>
      <stop offset="1" stop-color="#5761d7"/>
    </linearGradient>
    <linearGradient id="linear-gradient-12" x1="0.113" y1="0.194" x2="0.87" y2="1.433" gradientUnits="objectBoundingBox">
      <stop offset="0.242" stop-color="#5761d7"/>
      <stop offset="0.392" stop-color="#7a81e5"/>
      <stop offset="0.546" stop-color="#979bf0"/>
      <stop offset="0.7" stop-color="#abaef8"/>
      <stop offset="0.852" stop-color="#b7bafd"/>
      <stop offset="1" stop-color="#bcbeff"/>
    </linearGradient>
    <linearGradient id="linear-gradient-13" y1="0.5" x2="1" y2="0.5" gradientUnits="objectBoundingBox">
      <stop offset="0" stop-color="#e9e9fd"/>
      <stop offset="0.36" stop-color="#d2d2f9"/>
      <stop offset="0.706" stop-color="#c4c3f6"/>
      <stop offset="1" stop-color="#c0bff6"/>
    </linearGradient>
    <linearGradient id="linear-gradient-15" x1="0.5" y1="1" x2="0.5" y2="0" xlink:href="#linear-gradient-3"/>
  </defs>
  <g id="Group_644" data-name="Group 644" transform="translate(-208.73 -22.561)">
    <path id="Path_385" data-name="Path 385" d="M491.764,304.584l-.266-.459,143.987-83.092c1.658-.957,2.572-2.215,2.572-3.539s-.915-2.582-2.572-3.539L610.144,199.3l.268-.459L635.751,213.5c1.829,1.058,2.835,2.477,2.835,4s-1.007,2.942-2.835,4Z" transform="translate(182.31 113.656)" fill="#42e8e0"/>
    <path id="Path_386" data-name="Path 386" d="M445.314,338.344a7.5,7.5,0,0,1-3.653-.91L273.985,240.627a2.836,2.836,0,0,1-1.661-2.273,2.125,2.125,0,0,1,1.215-1.8L373.6,178.781a7.216,7.216,0,0,1,6.485.258l167.681,96.807a2.835,2.835,0,0,1,1.658,2.273,2.124,2.124,0,0,1-1.214,1.8l-100.061,57.77A5.8,5.8,0,0,1,445.314,338.344ZM274.27,240.131l167.677,96.809a6.581,6.581,0,0,0,5.915.257l100.061-57.77a1.577,1.577,0,0,0,.931-1.308,2.3,2.3,0,0,0-1.375-1.778L379.8,179.533a6.591,6.591,0,0,0-5.914-.258L273.824,237.046a1.581,1.581,0,0,0-.931,1.308,2.3,2.3,0,0,0,1.377,1.778Z" transform="translate(41.001 100.301)" fill="#42e8e0"/>
    <g id="Group_598" data-name="Group 598" transform="translate(313.609 261.985)">
      <path id="Path_387" data-name="Path 387" d="M549.028,265.814l-9.235-1.327L379.831,172.131a6.892,6.892,0,0,0-6.2-.257l-95.269,55-5.863-.844v7.783l.018,0a2.538,2.538,0,0,0,1.5,2l167.677,96.809a6.9,6.9,0,0,0,6.2.257L547.954,275.12a1.815,1.815,0,0,0,1.056-1.584l.018,0Z" transform="translate(-272.497 -166.117)" fill="url(#linear-gradient)"/>
      <path id="Path_388" data-name="Path 388" d="M274.015,230.1,441.693,326.91a6.9,6.9,0,0,0,6.2.257L547.954,269.4c1.591-.918,1.39-2.521-.446-3.581L379.831,169.007a6.892,6.892,0,0,0-6.2-.257l-100.061,57.77C271.981,227.438,272.18,229.04,274.015,230.1Z" transform="translate(-272.497 -168.131)" fill="url(#linear-gradient-2)"/>
      <path id="Path_389" data-name="Path 389" d="M282.78,228.673,432.653,315.2a6.163,6.163,0,0,0,5.543.229L527.631,263.8c1.421-.821,1.243-2.253-.4-3.2L377.36,174.068a6.164,6.164,0,0,0-5.543-.23l-89.436,51.636C280.961,226.295,281.14,227.728,282.78,228.673Z" transform="translate(-266.742 -164.809)" fill="#24126a" opacity="0.3"/>
      <path id="Path_390" data-name="Path 390" d="M547.948,245.222l-100.059,57.77a6.9,6.9,0,0,1-6.2-.257L274.009,205.926a2.876,2.876,0,0,1-1.438-1.605c-.255.819.229,1.748,1.438,2.447l167.677,96.809a6.9,6.9,0,0,0,6.2.257l100.059-57.77a1.7,1.7,0,0,0,.993-1.975A2.033,2.033,0,0,1,547.948,245.222Z" transform="translate(-272.491 -144.799)" fill="#fff"/>
    </g>
    <path id="Path_391" data-name="Path 391" d="M430.916,221.166l-.266-.459L484.018,189.9,344.092,109.112a12.843,12.843,0,0,0-12.809,0L285.8,135.372l-.265-.459,45.484-26.261a13.382,13.382,0,0,1,13.344,0L485.077,189.9l-.4.229Z" transform="translate(49.518 54.357)" fill="#42e8e0"/>
    <g id="Group_600" data-name="Group 600" transform="translate(471.052 22.561)">
      <g id="Group_599" data-name="Group 599">
        <path id="Path_392" data-name="Path 392" d="M679.333,318.945l-27.082-15.163c-6.064-3.393-11.393-10.867-13.265-18.6l-23.454-96.9a30.817,30.817,0,0,0-8.627-14.959l-3.27,10.051a7.591,7.591,0,0,1-4.421,5.036c-2.515.962-5.683.464-8.926-1.408l-3.824-2.207-3.38,10.391a7.59,7.59,0,0,1-4.419,5.035c-2.521.964-5.686.465-8.929-1.406l-4.89-2.824c-5.648-3.261-10.8-10.322-12.817-17.571a30.475,30.475,0,0,0-9.653-15.212l-2.248,4.765a7.169,7.169,0,0,1-4.355,3.969c-2.438.763-5.461.212-8.515-1.549l-2.553-1.474-5.128,10.865a7.171,7.171,0,0,1-4.357,3.97c-2.433.76-5.459.212-8.513-1.551l-5.6-3.232c-6.125-3.538-11.415-11.143-13.158-18.926L464.513,55.367a30.676,30.676,0,0,0-9.084-15.735L421.64,131.96a7.45,7.45,0,0,1-4.408,4.7c-2.493.9-5.622.388-8.811-1.449l-3.469-2-3.863,10.559a7.459,7.459,0,0,1-4.41,4.706c-2.493.906-5.622.39-8.809-1.451l-19.648-11.344.4-.229,20.682-11.888.133.076,15.232,8.8,33.983-92.858c1.308-3.576,3.967-5.423,7.454-5.187,2.8.183,6.049,1.75,9.082,4.345l4.015-10.969c1.235-3.377,3.664-5.207,6.878-5.207.191,0,.382.007.574.018,6.842.447,16.3,9.125,18.926,20.86l23.436,104.677c1.686,7.526,6.993,15.169,12.908,18.584l2.544,1.469,2.382-5.044a7.025,7.025,0,0,1,7.326-4.321,15.889,15.889,0,0,1,8,3.581l5.225-11.071a7.02,7.02,0,0,1,7.326-4.322c6.373.541,15.207,8.141,18.362,19.474,1.982,7.122,7.035,14.056,12.572,17.253l.5.289,3.482-10.7c1.216-3.729,3.827-5.724,7.336-5.571,3.015.117,6.495,1.768,9.7,4.584l3.52-10.824c1.216-3.73,3.827-5.719,7.336-5.571,6.887.265,16.191,8.535,19.069,20.421l23.456,96.9c1.837,7.6,7.064,14.936,13.007,18.261l27.082,15.163-.26.462L672.8,291.97c-6.064-3.393-11.393-10.868-13.265-18.6l-23.454-96.9c-2.78-11.482-12.018-19.763-18.572-20.016-3.278-.122-5.661,1.673-6.811,5.2l-3.594,11.051a31.2,31.2,0,0,1,8.942,15.449l23.456,96.9c1.837,7.6,7.064,14.934,13.007,18.261l27.082,15.163ZM542.6,162.724a30.96,30.96,0,0,1,9.936,15.553c1.984,7.123,7.035,14.058,12.572,17.255l4.89,2.822c3.1,1.791,6.115,2.28,8.47,1.372a7.08,7.08,0,0,0,4.107-4.7l3.416-10.5-.6-.344c-5.648-3.263-10.8-10.324-12.817-17.571-3.094-11.115-11.7-18.561-17.9-19.089a6.465,6.465,0,0,0-6.8,4.021Zm44.028,21.554,3.923,2.265c3.1,1.789,6.11,2.278,8.469,1.37a7.083,7.083,0,0,0,4.109-4.7l3.345-10.283c-3.169-2.855-6.609-4.549-9.518-4.661-3.34-.127-5.663,1.673-6.811,5.2ZM455.618,39.11a31.153,31.153,0,0,1,9.413,16.141l23.437,104.677c1.686,7.526,6.993,15.168,12.906,18.582l5.6,3.232c2.921,1.686,5.793,2.222,8.09,1.5a6.663,6.663,0,0,0,4.034-3.689l5.146-10.906-2.586-1.492c-6.127-3.539-11.414-11.145-13.158-18.926L485.066,43.556c-2.576-11.508-11.788-20.011-18.442-20.447-3.294-.22-5.683,1.459-6.921,4.842Zm69.316,129.325,2.591,1.5c2.919,1.688,5.793,2.222,8.09,1.5a6.668,6.668,0,0,0,4.035-3.689l2.3-4.88a15.436,15.436,0,0,0-7.819-3.533,6.467,6.467,0,0,0-6.8,4.02ZM369.286,135.684l18.85,10.883c3.049,1.762,6.02,2.26,8.363,1.411a6.947,6.947,0,0,0,4.09-4.39l3.9-10.646-15.181-8.765Zm35.852-2.977,3.549,2.048c3.049,1.765,6.025,2.263,8.363,1.411a6.94,6.94,0,0,0,4.09-4.388L455,39.253c-2.979-2.589-6.173-4.153-8.929-4.332-3.3-.217-5.682,1.459-6.921,4.842Z" transform="translate(-368.222 -22.561)" fill="#42e8e0"/>
        <rect id="Rectangle_1491" data-name="Rectangle 1491" width="23.901" height="0.53" transform="matrix(0.867, -0.498, 0.498, 0.867, 73.69, 12.753)" fill="#42e8e0"/>
        <path id="Path_393" data-name="Path 393" d="M466.44,111.339l-.264-.459,20.966-12.085.263.459Z" transform="translate(-305.067 26.589)" fill="#42e8e0"/>
        <rect id="Rectangle_1492" data-name="Rectangle 1492" width="25.193" height="0.53" transform="translate(224.301 146.443) rotate(-29.822)" fill="#42e8e0"/>
        <path id="Path_394" data-name="Path 394" d="M679.333,318.945l-27.082-15.163c-6.064-3.393-11.393-10.867-13.265-18.6l-23.454-96.9a30.817,30.817,0,0,0-8.627-14.959l-3.27,10.051a7.591,7.591,0,0,1-4.421,5.036c-2.515.962-5.683.464-8.926-1.408l-3.824-2.207-3.38,10.391a7.59,7.59,0,0,1-4.419,5.035c-2.521.964-5.686.465-8.929-1.406l-4.89-2.824c-5.648-3.261-10.8-10.322-12.817-17.571a30.475,30.475,0,0,0-9.653-15.212l-2.248,4.765a7.169,7.169,0,0,1-4.355,3.969c-2.438.763-5.461.212-8.515-1.549l-2.553-1.474-5.128,10.865a7.171,7.171,0,0,1-4.357,3.97c-2.433.76-5.459.212-8.513-1.551l-5.6-3.232c-6.125-3.538-11.415-11.143-13.158-18.926L464.513,55.367a30.676,30.676,0,0,0-9.084-15.735L421.64,131.96a7.45,7.45,0,0,1-4.408,4.7c-2.493.9-5.622.388-8.811-1.449l-3.469-2-3.863,10.559a7.459,7.459,0,0,1-4.41,4.706c-2.493.906-5.622.39-8.809-1.451l-19.648-11.344.4-.229,20.682-11.888.133.076,15.232,8.8,33.983-92.858c1.308-3.576,3.967-5.423,7.454-5.187,2.8.183,6.049,1.75,9.082,4.345l4.015-10.969c1.235-3.377,3.664-5.207,6.878-5.207.191,0,.382.007.574.018,6.842.447,16.3,9.125,18.926,20.86l23.436,104.677c1.686,7.526,6.993,15.169,12.908,18.584l2.544,1.469,2.382-5.044a7.025,7.025,0,0,1,7.326-4.321,15.889,15.889,0,0,1,8,3.581l5.225-11.071a7.02,7.02,0,0,1,7.326-4.322c6.373.541,15.207,8.141,18.362,19.474,1.982,7.122,7.035,14.056,12.572,17.253l.5.289,3.482-10.7c1.216-3.729,3.827-5.724,7.336-5.571,3.015.117,6.495,1.768,9.7,4.584l3.52-10.824c1.216-3.73,3.827-5.719,7.336-5.571,6.887.265,16.191,8.535,19.069,20.421l23.456,96.9c1.837,7.6,7.064,14.936,13.007,18.261l27.082,15.163-.26.462L672.8,291.97c-6.064-3.393-11.393-10.868-13.265-18.6l-23.454-96.9c-2.78-11.482-12.018-19.763-18.572-20.016-3.278-.122-5.661,1.673-6.811,5.2l-3.594,11.051a31.2,31.2,0,0,1,8.942,15.449l23.456,96.9c1.837,7.6,7.064,14.934,13.007,18.261l27.082,15.163ZM542.6,162.724a30.96,30.96,0,0,1,9.936,15.553c1.984,7.123,7.035,14.058,12.572,17.255l4.89,2.822c3.1,1.791,6.115,2.28,8.47,1.372a7.08,7.08,0,0,0,4.107-4.7l3.416-10.5-.6-.344c-5.648-3.263-10.8-10.324-12.817-17.571-3.094-11.115-11.7-18.561-17.9-19.089a6.465,6.465,0,0,0-6.8,4.021Zm44.028,21.554,3.923,2.265c3.1,1.789,6.11,2.278,8.469,1.37a7.083,7.083,0,0,0,4.109-4.7l3.345-10.283c-3.169-2.855-6.609-4.549-9.518-4.661-3.34-.127-5.663,1.673-6.811,5.2ZM455.618,39.11a31.153,31.153,0,0,1,9.413,16.141l23.437,104.677c1.686,7.526,6.993,15.168,12.906,18.582l5.6,3.232c2.921,1.686,5.793,2.222,8.09,1.5a6.663,6.663,0,0,0,4.034-3.689l5.146-10.906-2.586-1.492c-6.127-3.539-11.414-11.145-13.158-18.926L485.066,43.556c-2.576-11.508-11.788-20.011-18.442-20.447-3.294-.22-5.683,1.459-6.921,4.842Zm69.316,129.325,2.591,1.5c2.919,1.688,5.793,2.222,8.09,1.5a6.668,6.668,0,0,0,4.035-3.689l2.3-4.88a15.436,15.436,0,0,0-7.819-3.533,6.467,6.467,0,0,0-6.8,4.02ZM369.286,135.684l18.85,10.883c3.049,1.762,6.02,2.26,8.363,1.411a6.947,6.947,0,0,0,4.09-4.39l3.9-10.646-15.181-8.765Zm35.852-2.977,3.549,2.048c3.049,1.765,6.025,2.263,8.363,1.411a6.94,6.94,0,0,0,4.09-4.388L455,39.253c-2.979-2.589-6.173-4.153-8.929-4.332-3.3-.217-5.682,1.459-6.921,4.842Z" transform="translate(-368.222 -22.561)" fill="#42e8e0"/>
      </g>
      <path id="Path_395" data-name="Path 395" d="M381.041,123.768l19.248,11.113c5.783,3.339,10.933,2.089,12.837-3.117l38.064-104.01c4.347-11.878,22.112-1.138,25.868,15.64L500.5,148.072c1.712,7.65,7.015,15.28,13.033,18.753l5.6,3.232c5.439,3.141,10.355,2.235,12.5-2.3l7.755-16.431c4.808-10.186,20.826-.579,25.194,15.109h0c2.015,7.237,7.063,14.161,12.7,17.413l4.89,2.822c5.929,3.424,11.174,2.015,12.962-3.48l7.064-21.715c3.987-12.258,21.806-2.051,25.893,14.831l23.454,96.9c1.844,7.617,7.171,15.09,13.136,18.431L691.749,306.8Z" transform="translate(-359.957 -22.457)" opacity="0.5" fill="url(#linear-gradient-3)"/>
      <path id="Path_396" data-name="Path 396" d="M368.545,130.768l19.25,11.113c5.783,3.339,10.933,2.089,12.837-3.117l38.062-104.01c4.347-11.878,22.113-1.138,25.87,15.64L488,155.072c1.712,7.65,7.015,15.28,13.033,18.753l5.6,3.232c5.439,3.141,10.355,2.235,12.5-2.3l7.755-16.431c4.808-10.186,20.826-.579,25.194,15.108h0c2.015,7.237,7.062,14.161,12.7,17.413l4.888,2.822c5.929,3.424,11.176,2.015,12.964-3.48l7.064-21.715c3.987-12.258,21.806-2.051,25.893,14.831l23.454,96.9c1.844,7.617,7.171,15.09,13.136,18.431L679.255,313.8Z" transform="translate(-368.014 -17.944)" opacity="0.5" fill="url(#linear-gradient-3)"/>
    </g>
    <g id="Group_601" data-name="Group 601" transform="translate(280.416 241.879)">
      <path id="Path_397" data-name="Path 397" d="M294.9,205.312a14.428,14.428,0,0,1-7.051-1.683l-32.535-18.784c-1.934-1.117-3-2.622-3-4.235s1.066-3.118,3-4.235l32.533-18.783a15.6,15.6,0,0,1,14.1,0l32.534,18.784c1.934,1.115,3,2.62,3,4.235s-1.064,3.118-3,4.234L301.95,203.629A14.418,14.418,0,0,1,294.9,205.312Zm-6.766-2.178a14.964,14.964,0,0,0,13.533,0L334.2,184.351c1.752-1.01,2.715-2.339,2.715-3.74s-.964-2.732-2.715-3.743l-32.533-18.783a14.985,14.985,0,0,0-13.533,0L255.6,176.868c-1.75,1.01-2.714,2.339-2.714,3.742s.964,2.732,2.714,3.742Z" transform="translate(-252.315 -155.907)" fill="#42e8e0"/>
    </g>
    <g id="Group_615" data-name="Group 615" transform="translate(313.609 104.528)">
      <g id="Group_613" data-name="Group 613">
        <g id="Group_611" data-name="Group 611">
          <g id="Group_605" data-name="Group 605">
            <g id="Group_603" data-name="Group 603" transform="translate(104.34)">
              <path id="Path_398" data-name="Path 398" d="M337.587,200.549l21.2-125.755-1.7-.717,2.561-1.469,0,.015a1.843,1.843,0,0,1,1.974.136l169.4,97.8a4.778,4.778,0,0,1,2.2,4.3L511.845,301.62a1.591,1.591,0,0,1-.893,1.291h0l-2.507,1.447-.431-2.339.143.043-168.375-97.21A4.78,4.78,0,0,1,337.587,200.549Z" transform="translate(-334.893 -72.397)" fill="url(#linear-gradient-5)"/>
              <path id="Path_399" data-name="Path 399" d="M466.526,134.656l2.786-1.232a3.836,3.836,0,0,1,.357,2.1L448.306,262.274a1.591,1.591,0,0,1-.893,1.291h0l-2.507,1.447-.431-2.339.143.043L436.1,257.8Z" transform="translate(-271.355 -33.051)" fill="url(#linear-gradient-6)"/>
              <path id="Path_400" data-name="Path 400" d="M338.17,205.781l169.4,97.8c1.308.755,2.428.317,2.658-1.036L531.594,175.8a4.788,4.788,0,0,0-2.2-4.3l-169.4-97.8c-1.308-.755-2.428-.319-2.656,1.035L335.971,201.479A4.782,4.782,0,0,0,338.17,205.781Z" transform="translate(-335.935 -71.802)" fill="#24126a"/>
              <g id="Group_602" data-name="Group 602" transform="translate(2.104 4.245)" opacity="0.51">
                <path id="Path_401" data-name="Path 401" d="M358.6,74.978,528.8,173.2,507.3,300.273,337.215,202.118Z" transform="translate(-337.215 -74.978)" fill="#453c9e"/>
              </g>
            </g>
            <g id="Group_604" data-name="Group 604" transform="translate(0 133.539)">
              <path id="Path_402" data-name="Path 402" d="M272.551,209.667l9.245,4.827,92.7-53.52a6.731,6.731,0,0,1,6.051.25l159.883,92.309c1.53-.857,8.505-4.211,8.505-4.211l-3.383,5.5-.015-.012a2.016,2.016,0,0,1-.946,1.051l-97.631,56.367a6.726,6.726,0,0,1-6.051-.25L277.3,217.519a2.922,2.922,0,0,1-1.372-1.459l-.013.008Z" transform="translate(-272.462 -149.217)" fill="url(#linear-gradient-7)"/>
              <path id="Path_403" data-name="Path 403" d="M274.015,215.559l167.677,96.809a6.9,6.9,0,0,0,6.2.257l100.059-57.77c1.591-.918,1.39-2.52-.446-3.579L379.831,154.467a6.888,6.888,0,0,0-6.2-.258l-100.061,57.77C271.981,212.9,272.18,214.5,274.015,215.559Z" transform="translate(-272.497 -153.589)" fill="url(#linear-gradient-2)"/>
              <path id="Path_404" data-name="Path 404" d="M274.011,191.459l167.677,96.809a6.891,6.891,0,0,0,6.2.258l100.059-57.77a2.025,2.025,0,0,0,1.008-1.173,1.709,1.709,0,0,1-1.008,1.923L447.89,289.276a6.9,6.9,0,0,1-6.2-.257L274.011,192.211c-1.189-.686-1.679-1.6-1.454-2.408A2.839,2.839,0,0,0,274.011,191.459Z" transform="translate(-272.492 -130.241)" fill="#fff"/>
            </g>
          </g>
          <g id="Group_610" data-name="Group 610" transform="translate(106.444 4.245)" opacity="0.15">
            <g id="Group_609" data-name="Group 609" clip-path="url(#clip-path)">
              <g id="Group_608" data-name="Group 608" transform="translate(-0.166 68.468)">
                <g id="Group_606" data-name="Group 606">
                  <path id="Path_405" data-name="Path 405" d="M337.168,172.686l9.245,4.827,92.7-53.52a6.717,6.717,0,0,1,6.049.25l159.883,92.307c1.53-.855,8.5-4.211,8.5-4.211l-3.383,5.5-.013-.011a2.025,2.025,0,0,1-.947,1.049l-97.631,56.368a6.726,6.726,0,0,1-6.051-.252l-163.61-94.459a2.925,2.925,0,0,1-1.372-1.461l-.013.008Z" transform="translate(-337.079 -112.236)" fill="url(#linear-gradient-9)"/>
                  <path id="Path_406" data-name="Path 406" d="M338.632,178.577l167.677,96.809a6.9,6.9,0,0,0,6.2.257l100.059-57.77c1.59-.918,1.39-2.521-.444-3.581L444.448,117.483a6.892,6.892,0,0,0-6.2-.257L338.186,175C336.6,175.914,336.8,177.516,338.632,178.577Z" transform="translate(-337.114 -116.607)" fill="url(#linear-gradient-10)"/>
                  <path id="Path_407" data-name="Path 407" d="M571.676,214.29,404,117.481a7.3,7.3,0,0,0-4.143-.842,7,7,0,0,1,2.908.842L570.441,214.29c1.834,1.059,2.035,2.663.444,3.581l-100.059,57.77a5.062,5.062,0,0,1-2.058.586,5.877,5.877,0,0,0,3.293-.586l100.059-57.77C573.711,216.953,573.51,215.35,571.676,214.29Z" transform="translate(-296.663 -116.605)" fill="#fff"/>
                </g>
                <g id="Group_607" data-name="Group 607" transform="translate(41.451 42.026)" opacity="0.5">
                  <path id="Path_408" data-name="Path 408" d="M396.672,145.437l-5.375-3.1a1.8,1.8,0,0,0-1.632.046l-5.974,3.49c-.469.273-.5.7-.067.947l5.375,3.1a1.79,1.79,0,0,0,1.63-.044l5.974-3.49C397.073,146.109,397.1,145.685,396.672,145.437Z" transform="translate(-348.775 -142.159)" fill="#24126a"/>
                  <path id="Path_409" data-name="Path 409" d="M401.719,148.351l-5.375-3.1a1.8,1.8,0,0,0-1.632.044l-5.974,3.49c-.469.275-.5.7-.067.947l5.373,3.1a1.8,1.8,0,0,0,1.632-.044l5.974-3.49C402.119,149.024,402.15,148.6,401.719,148.351Z" transform="translate(-345.521 -140.281)" fill="#24126a"/>
                  <path id="Path_410" data-name="Path 410" d="M406.765,151.264l-5.375-3.1a1.79,1.79,0,0,0-1.63.044l-5.974,3.49c-.47.275-.5.7-.069.947l5.375,3.1a1.8,1.8,0,0,0,1.632-.046l5.974-3.49C407.166,151.938,407.2,151.514,406.765,151.264Z" transform="translate(-342.267 -138.402)" fill="#24126a"/>
                  <path id="Path_411" data-name="Path 411" d="M402.547,155.142l-5.375-3.1a1.8,1.8,0,0,0-1.632.046l-5.013,2.929c-.47.275-.5.7-.069.947l5.375,3.1a1.8,1.8,0,0,0,1.632-.044l5.015-2.931C402.948,155.816,402.978,155.392,402.547,155.142Z" transform="translate(-344.369 -135.902)" fill="#24126a"/>
                  <path id="Path_412" data-name="Path 412" d="M407.594,158.056l-5.375-3.1a1.8,1.8,0,0,0-1.632.046l-5.015,2.929c-.469.275-.5.7-.068.947l5.375,3.1a1.8,1.8,0,0,0,1.63-.046L407.525,159C407.994,158.728,408.025,158.3,407.594,158.056Z" transform="translate(-341.115 -134.023)" fill="#24126a"/>
                  <path id="Path_413" data-name="Path 413" d="M412.64,160.97l-5.375-3.1a1.8,1.8,0,0,0-1.63.044l-5.015,2.931c-.469.273-.5.7-.069.947l5.375,3.1a1.794,1.794,0,0,0,1.632-.044l5.015-2.929C413.041,161.643,413.072,161.218,412.64,160.97Z" transform="translate(-337.861 -132.145)" fill="#24126a"/>
                  <path id="Path_414" data-name="Path 414" d="M417.687,163.883l-5.375-3.1a1.794,1.794,0,0,0-1.632.044l-5.013,2.929c-.47.275-.5.7-.069.947l5.375,3.1a1.8,1.8,0,0,0,1.632-.044l5.013-2.931C418.088,164.557,418.118,164.133,417.687,163.883Z" transform="translate(-334.607 -130.266)" fill="#24126a"/>
                  <path id="Path_415" data-name="Path 415" d="M422.734,166.8l-5.375-3.1a1.8,1.8,0,0,0-1.632.046l-5.015,2.929c-.469.275-.5.7-.067.947l5.375,3.1a1.8,1.8,0,0,0,1.63-.046l5.015-2.929C423.134,167.469,423.165,167.045,422.734,166.8Z" transform="translate(-331.354 -128.388)" fill="#24126a"/>
                  <path id="Path_416" data-name="Path 416" d="M427.78,169.711l-5.375-3.1a1.8,1.8,0,0,0-1.63.044l-5.015,2.931c-.469.273-.5.7-.069.947l5.375,3.1a1.794,1.794,0,0,0,1.632-.044l5.015-2.929C428.181,170.384,428.212,169.959,427.78,169.711Z" transform="translate(-328.1 -126.509)" fill="#24126a"/>
                  <path id="Path_417" data-name="Path 417" d="M432.827,172.624l-5.375-3.1a1.794,1.794,0,0,0-1.632.044l-5.015,2.929c-.469.275-.5.7-.068.947l5.375,3.1a1.8,1.8,0,0,0,1.632-.044l5.013-2.931C433.229,173.3,433.258,172.874,432.827,172.624Z" transform="translate(-324.846 -124.631)" fill="#24126a"/>
                  <path id="Path_418" data-name="Path 418" d="M437.873,175.538l-5.373-3.1a1.8,1.8,0,0,0-1.632.046l-5.015,2.929c-.469.275-.5.7-.067.947l5.375,3.1a1.8,1.8,0,0,0,1.63-.046l5.015-2.929C438.274,176.21,438.305,175.786,437.873,175.538Z" transform="translate(-321.592 -122.752)" fill="#24126a"/>
                  <path id="Path_419" data-name="Path 419" d="M442.92,178.452l-5.375-3.1a1.8,1.8,0,0,0-1.63.044l-5.015,2.931c-.47.273-.5.7-.069.947l5.375,3.1a1.793,1.793,0,0,0,1.632-.044l5.015-2.929C443.321,179.125,443.351,178.7,442.92,178.452Z" transform="translate(-318.339 -120.874)" fill="#24126a"/>
                  <path id="Path_420" data-name="Path 420" d="M447.967,181.365l-5.375-3.1a1.794,1.794,0,0,0-1.632.044l-5.015,2.929c-.469.275-.5.7-.067.947l5.375,3.1a1.8,1.8,0,0,0,1.63-.044l5.015-2.931C448.368,182.039,448.4,181.615,447.967,181.365Z" transform="translate(-315.085 -118.995)" fill="#24126a"/>
                  <path id="Path_421" data-name="Path 421" d="M400.445,159.3l-5.375-3.1a1.8,1.8,0,0,0-1.632.044l-5.015,2.929c-.469.275-.5.7-.067.949l5.375,3.1a1.8,1.8,0,0,0,1.63-.044l5.015-2.929C400.845,159.975,400.876,159.55,400.445,159.3Z" transform="translate(-345.724 -133.22)" fill="#24126a"/>
                  <path id="Path_422" data-name="Path 422" d="M395.323,156.344l-5.375-3.1a1.794,1.794,0,0,0-1.632.044l-5.015,2.929c-.469.275-.5.7-.067.947l5.375,3.1a1.8,1.8,0,0,0,1.63-.044l5.015-2.931C395.725,157.018,395.754,156.594,395.323,156.344Z" transform="translate(-349.026 -135.127)" fill="#24126a"/>
                  <path id="Path_423" data-name="Path 423" d="M392.623,154.785,381.047,148.1a1.8,1.8,0,0,0-1.63.044l-5.015,2.931c-.47.273-.5.7-.069.947l11.576,6.683a1.8,1.8,0,0,0,1.632-.044l5.015-2.931C393.024,155.459,393.055,155.035,392.623,154.785Z" transform="translate(-354.765 -138.44)" fill="#24126a"/>
                  <path id="Path_424" data-name="Path 424" d="M385.815,156.228l-9.395-5.424a1.8,1.8,0,0,0-1.63.046l-5.015,2.929c-.469.275-.5.7-.067.947l9.393,5.424a1.8,1.8,0,0,0,1.632-.046l5.015-2.929C386.217,156.9,386.248,156.477,385.815,156.228Z" transform="translate(-357.747 -136.698)" fill="#24126a"/>
                  <path id="Path_425" data-name="Path 425" d="M405.491,162.215l-5.375-3.1a1.8,1.8,0,0,0-1.63.046l-5.015,2.929c-.469.275-.5.7-.069.947l5.375,3.1a1.8,1.8,0,0,0,1.632-.046l5.015-2.929C405.892,162.889,405.923,162.465,405.491,162.215Z" transform="translate(-342.47 -131.342)" fill="#24126a"/>
                  <path id="Path_426" data-name="Path 426" d="M410.538,165.129l-5.375-3.1a1.8,1.8,0,0,0-1.632.046L398.518,165c-.47.275-.5.7-.069.947l5.375,3.1a1.8,1.8,0,0,0,1.632-.046l5.013-2.929C410.939,165.8,410.969,165.377,410.538,165.129Z" transform="translate(-339.217 -129.463)" fill="#24126a"/>
                  <path id="Path_427" data-name="Path 427" d="M415.585,168.043l-5.375-3.1a1.8,1.8,0,0,0-1.632.044l-5.015,2.931c-.469.273-.5.7-.067.947l5.375,3.1a1.79,1.79,0,0,0,1.63-.044l5.015-2.929C415.985,168.716,416.016,168.291,415.585,168.043Z" transform="translate(-335.963 -127.585)" fill="#24126a"/>
                  <path id="Path_428" data-name="Path 428" d="M420.631,170.956l-5.375-3.1a1.8,1.8,0,0,0-1.63.046l-5.015,2.929c-.469.275-.5.7-.069.947l5.375,3.1a1.8,1.8,0,0,0,1.632-.044l5.015-2.931C421.032,171.63,421.063,171.206,420.631,170.956Z" transform="translate(-332.709 -125.706)" fill="#24126a"/>
                  <path id="Path_429" data-name="Path 429" d="M425.678,173.87l-5.375-3.1a1.8,1.8,0,0,0-1.632.046l-5.015,2.929c-.469.275-.5.7-.067.947l5.375,3.1a1.8,1.8,0,0,0,1.632-.046l5.013-2.929C426.079,174.542,426.109,174.118,425.678,173.87Z" transform="translate(-329.455 -123.828)" fill="#24126a"/>
                  <path id="Path_430" data-name="Path 430" d="M430.724,176.784l-5.373-3.1a1.8,1.8,0,0,0-1.632.044l-5.015,2.931c-.469.273-.5.7-.067.947l5.375,3.1a1.79,1.79,0,0,0,1.63-.044l5.015-2.929C431.125,177.457,431.156,177.032,430.724,176.784Z" transform="translate(-326.202 -121.949)" fill="#24126a"/>
                  <path id="Path_431" data-name="Path 431" d="M435.771,179.7l-5.375-3.1a1.79,1.79,0,0,0-1.63.044l-5.015,2.929c-.47.275-.5.7-.069.947l5.375,3.1a1.8,1.8,0,0,0,1.632-.044l5.015-2.931C436.172,180.371,436.2,179.947,435.771,179.7Z" transform="translate(-322.948 -120.071)" fill="#24126a"/>
                  <path id="Path_432" data-name="Path 432" d="M440.818,182.611l-5.375-3.1a1.8,1.8,0,0,0-1.632.046l-5.015,2.929c-.469.275-.5.7-.068.947l5.375,3.1a1.8,1.8,0,0,0,1.63-.046l5.015-2.929C441.22,183.283,441.249,182.859,440.818,182.611Z" transform="translate(-319.694 -118.192)" fill="#24126a"/>
                  <path id="Path_433" data-name="Path 433" d="M445.864,185.525l-5.375-3.1a1.8,1.8,0,0,0-1.63.044l-5.015,2.931c-.469.273-.5.7-.067.947l5.373,3.1a1.793,1.793,0,0,0,1.632-.044l5.015-2.929C446.265,186.2,446.3,185.773,445.864,185.525Z" transform="translate(-316.44 -116.314)" fill="#24126a"/>
                  <path id="Path_434" data-name="Path 434" d="M457.326,192.141l-11.727-6.77a1.8,1.8,0,0,0-1.632.044l-5.015,2.931c-.469.273-.5.7-.067.947l11.727,6.77a1.8,1.8,0,0,0,1.632-.044l5.015-2.929C457.727,192.816,457.759,192.391,457.326,192.141Z" transform="translate(-313.146 -114.412)" fill="#24126a"/>
                  <path id="Path_435" data-name="Path 435" d="M447.358,197.132l-9.9-5.714a1.8,1.8,0,0,0-1.632.044l-5.015,2.929c-.469.275-.5.7-.067.949l9.9,5.714a1.8,1.8,0,0,0,1.632-.044l5.013-2.931C447.76,197.807,447.789,197.382,447.358,197.132Z" transform="translate(-318.394 -110.513)" fill="#24126a"/>
                  <path id="Path_436" data-name="Path 436" d="M404.791,167.184l-5.375-3.1a1.8,1.8,0,0,0-1.632.046l-5.015,2.929c-.469.273-.5.7-.067.947l5.375,3.1a1.8,1.8,0,0,0,1.63-.046l5.015-2.929C405.193,167.856,405.222,167.432,404.791,167.184Z" transform="translate(-342.922 -128.138)" fill="#24126a"/>
                  <path id="Path_437" data-name="Path 437" d="M399.619,164.2l-5.375-3.1a1.8,1.8,0,0,0-1.632.044L387.6,164.07c-.469.273-.5.7-.067.947l5.375,3.1a1.79,1.79,0,0,0,1.63-.044l5.015-2.929C400.019,164.871,400.05,164.446,399.619,164.2Z" transform="translate(-346.257 -130.064)" fill="#24126a"/>
                  <path id="Path_438" data-name="Path 438" d="M394.446,161.212l-5.373-3.1a1.8,1.8,0,0,0-1.632.044l-5.015,2.931c-.469.273-.5.7-.067.947l5.375,3.1a1.8,1.8,0,0,0,1.63-.044l5.015-2.929C394.847,161.885,394.878,161.46,394.446,161.212Z" transform="translate(-349.591 -131.989)" fill="#24126a"/>
                  <path id="Path_439" data-name="Path 439" d="M389.274,158.225l-5.375-3.1a1.79,1.79,0,0,0-1.63.044l-5.015,2.929c-.469.275-.5.7-.069.947l5.375,3.1a1.8,1.8,0,0,0,1.632-.044l5.015-2.931C389.675,158.9,389.706,158.475,389.274,158.225Z" transform="translate(-352.926 -133.914)" fill="#24126a"/>
                  <path id="Path_440" data-name="Path 440" d="M409.837,170.1l-5.373-3.1a1.8,1.8,0,0,0-1.632.044l-5.015,2.931c-.469.273-.5.7-.067.947l5.373,3.1a1.8,1.8,0,0,0,1.632-.044l5.015-2.929C410.238,170.771,410.269,170.346,409.837,170.1Z" transform="translate(-339.668 -126.26)" fill="#24126a"/>
                  <path id="Path_441" data-name="Path 441" d="M414.884,173.011l-5.375-3.1a1.8,1.8,0,0,0-1.63.046l-5.015,2.929c-.47.275-.5.7-.069.947l5.375,3.1a1.8,1.8,0,0,0,1.632-.046l5.015-2.929C415.285,173.685,415.315,173.261,414.884,173.011Z" transform="translate(-336.415 -124.381)" fill="#24126a"/>
                  <path id="Path_442" data-name="Path 442" d="M419.931,175.925l-5.375-3.1a1.8,1.8,0,0,0-1.632.046L407.91,175.8c-.469.275-.5.7-.067.947l5.375,3.1a1.8,1.8,0,0,0,1.63-.046l5.015-2.929C420.333,176.6,420.362,176.173,419.931,175.925Z" transform="translate(-333.161 -122.503)" fill="#24126a"/>
                  <path id="Path_443" data-name="Path 443" d="M424.977,178.839l-5.375-3.1a1.8,1.8,0,0,0-1.63.044l-5.015,2.931c-.469.273-.5.7-.069.947l5.375,3.1a1.794,1.794,0,0,0,1.632-.044l5.015-2.929C425.378,179.512,425.409,179.087,424.977,178.839Z" transform="translate(-329.907 -120.624)" fill="#24126a"/>
                  <path id="Path_444" data-name="Path 444" d="M430.024,181.752l-5.375-3.1a1.794,1.794,0,0,0-1.632.044L418,181.623c-.47.275-.5.7-.069.947l5.375,3.1a1.8,1.8,0,0,0,1.632-.044l5.015-2.931C430.425,182.426,430.455,182,430.024,181.752Z" transform="translate(-326.653 -118.746)" fill="#24126a"/>
                  <path id="Path_445" data-name="Path 445" d="M435.071,184.666l-5.375-3.1a1.8,1.8,0,0,0-1.632.046l-5.015,2.929c-.469.275-.5.7-.067.947l5.375,3.1a1.8,1.8,0,0,0,1.63-.046L435,185.613C435.471,185.338,435.5,184.914,435.071,184.666Z" transform="translate(-323.4 -116.867)" fill="#24126a"/>
                  <path id="Path_446" data-name="Path 446" d="M440.117,187.58l-5.375-3.1a1.8,1.8,0,0,0-1.63.044l-5.015,2.931c-.469.273-.5.7-.069.947l5.375,3.1a1.794,1.794,0,0,0,1.632-.044l5.015-2.929C440.518,188.253,440.549,187.828,440.117,187.58Z" transform="translate(-320.146 -114.989)" fill="#24126a"/>
                  <path id="Path_447" data-name="Path 447" d="M445.164,190.493l-5.375-3.1a1.794,1.794,0,0,0-1.632.044l-5.015,2.929c-.469.275-.5.7-.068.947l5.375,3.1a1.8,1.8,0,0,0,1.632-.044l5.013-2.931C445.565,191.167,445.6,190.743,445.164,190.493Z" transform="translate(-316.892 -113.11)" fill="#24126a"/>
                  <path id="Path_448" data-name="Path 448" d="M450.211,193.407l-5.375-3.1a1.8,1.8,0,0,0-1.632.046l-5.015,2.929c-.469.275-.5.7-.067.947l5.375,3.1a1.8,1.8,0,0,0,1.63-.046l5.015-2.929C450.611,194.079,450.642,193.655,450.211,193.407Z" transform="translate(-313.638 -111.231)" fill="#24126a"/>
                  <path id="Path_449" data-name="Path 449" d="M392.595,165.516l-5.375-3.1a1.8,1.8,0,0,0-1.63.046l-5.015,2.929c-.469.273-.5.7-.069.947l5.375,3.1a1.8,1.8,0,0,0,1.632-.046l5.015-2.929C393,166.188,393.027,165.764,392.595,165.516Z" transform="translate(-350.785 -129.214)" fill="#24126a"/>
                  <path id="Path_450" data-name="Path 450" d="M387.574,162.617l-5.375-3.1a1.8,1.8,0,0,0-1.632.044l-5.015,2.931c-.469.273-.5.7-.067.947l5.375,3.1a1.79,1.79,0,0,0,1.63-.044l5.015-2.929C387.974,163.29,388.005,162.865,387.574,162.617Z" transform="translate(-354.022 -131.083)" fill="#24126a"/>
                  <path id="Path_451" data-name="Path 451" d="M382.552,159.716l-5.375-3.1a1.8,1.8,0,0,0-1.63.044l-5.015,2.929c-.47.275-.5.7-.069.947l5.375,3.1a1.8,1.8,0,0,0,1.632-.044l5.015-2.931C382.953,160.391,382.985,159.966,382.552,159.716Z" transform="translate(-357.26 -132.952)" fill="#24126a"/>
                  <path id="Path_452" data-name="Path 452" d="M377.531,156.818l-5.375-3.1a1.794,1.794,0,0,0-1.632.044l-5.015,2.929c-.469.275-.5.7-.067.947l5.375,3.1a1.8,1.8,0,0,0,1.63-.044l5.015-2.931C377.931,157.492,377.962,157.068,377.531,156.818Z" transform="translate(-360.498 -134.821)" fill="#24126a"/>
                  <path id="Path_453" data-name="Path 453" d="M371.354,159.659l-5.375-3.1a1.8,1.8,0,0,0-1.632.046l-1.658.967c-.469.275-.5.7-.067.947l5.375,3.1a1.8,1.8,0,0,0,1.63-.044l1.658-.969C371.753,160.331,371.784,159.907,371.354,159.659Z" transform="translate(-362.316 -132.99)" fill="#24126a"/>
                  <path id="Path_454" data-name="Path 454" d="M377.907,163.442l-5.375-3.1a1.794,1.794,0,0,0-1.632.044l-1.658.969c-.469.275-.5.7-.067.947l5.375,3.1a1.8,1.8,0,0,0,1.63-.046l1.658-.969C378.306,164.116,378.337,163.692,377.907,163.442Z" transform="translate(-358.091 -130.551)" fill="#24126a"/>
                  <path id="Path_455" data-name="Path 455" d="M382.906,166.329l-5.375-3.1a1.79,1.79,0,0,0-1.63.044l-1.658.969c-.469.275-.5.7-.069.947l5.375,3.1a1.8,1.8,0,0,0,1.632-.046l1.658-.969C383.307,167,383.339,166.579,382.906,166.329Z" transform="translate(-354.867 -128.689)" fill="#24126a"/>
                  <path id="Path_456" data-name="Path 456" d="M387.907,169.215l-5.375-3.1a1.8,1.8,0,0,0-1.632.044l-1.658.969c-.469.275-.5.7-.067.947l5.375,3.1a1.8,1.8,0,0,0,1.63-.046l1.658-.967C388.309,169.89,388.338,169.465,387.907,169.215Z" transform="translate(-351.643 -126.828)" fill="#24126a"/>
                  <path id="Path_457" data-name="Path 457" d="M392.907,172.1l-5.373-3.1a1.8,1.8,0,0,0-1.632.044l-1.658.969c-.469.275-.5.7-.067.947l5.373,3.1a1.8,1.8,0,0,0,1.632-.046l1.658-.967C393.308,172.777,393.339,172.352,392.907,172.1Z" transform="translate(-348.419 -124.967)" fill="#24126a"/>
                  <path id="Path_458" data-name="Path 458" d="M420.825,188.222l-5.375-3.1a1.8,1.8,0,0,0-1.632.046l-1.656.967c-.47.275-.5.7-.069.947l5.375,3.1a1.8,1.8,0,0,0,1.632-.044l1.658-.969C421.227,188.894,421.256,188.47,420.825,188.222Z" transform="translate(-330.42 -114.574)" fill="#24126a"/>
                  <path id="Path_459" data-name="Path 459" d="M425.827,191.109l-5.375-3.1a1.8,1.8,0,0,0-1.632.046l-1.658.969c-.469.273-.5.7-.067.947l5.375,3.1a1.8,1.8,0,0,0,1.63-.044l1.658-.969C426.226,191.781,426.257,191.357,425.827,191.109Z" transform="translate(-327.196 -112.713)" fill="#24126a"/>
                  <path id="Path_460" data-name="Path 460" d="M430.826,194l-5.375-3.1a1.8,1.8,0,0,0-1.63.046l-1.658.969c-.469.273-.5.7-.069.947l5.375,3.1a1.794,1.794,0,0,0,1.632-.044l1.658-.969C431.227,194.668,431.259,194.244,430.826,194Z" transform="translate(-323.972 -110.852)" fill="#24126a"/>
                  <path id="Path_461" data-name="Path 461" d="M435.827,196.883l-5.375-3.1a1.8,1.8,0,0,0-1.632.046l-1.658.969c-.469.273-.5.7-.067.947l5.375,3.1a1.79,1.79,0,0,0,1.63-.044l1.658-.969C436.229,197.555,436.258,197.133,435.827,196.883Z" transform="translate(-320.748 -108.99)" fill="#24126a"/>
                  <path id="Path_462" data-name="Path 462" d="M397.642,168.428l-5.375-3.1a1.8,1.8,0,0,0-1.632.044l-5.015,2.929c-.469.275-.5.7-.068.949l5.375,3.1a1.8,1.8,0,0,0,1.632-.044l5.013-2.929C398.044,169.1,398.073,168.678,397.642,168.428Z" transform="translate(-347.531 -127.335)" fill="#24126a"/>
                  <path id="Path_463" data-name="Path 463" d="M402.688,171.343l-5.373-3.1a1.8,1.8,0,0,0-1.632.046l-5.015,2.929c-.469.275-.5.7-.067.947l5.375,3.1a1.8,1.8,0,0,0,1.63-.046l5.015-2.929C403.089,172.017,403.12,171.593,402.688,171.343Z" transform="translate(-344.277 -125.457)" fill="#24126a"/>
                  <path id="Path_464" data-name="Path 464" d="M407.735,174.257l-5.375-3.1a1.8,1.8,0,0,0-1.63.046l-5.015,2.929c-.47.273-.5.7-.069.947l5.375,3.1a1.8,1.8,0,0,0,1.632-.046l5.015-2.929C408.136,174.929,408.166,174.505,407.735,174.257Z" transform="translate(-341.024 -123.578)" fill="#24126a"/>
                  <path id="Path_465" data-name="Path 465" d="M412.782,177.169l-5.375-3.1a1.8,1.8,0,0,0-1.632.044l-5.015,2.929c-.469.275-.5.7-.067.949l5.375,3.1a1.8,1.8,0,0,0,1.63-.044l5.015-2.929C413.184,177.844,413.213,177.419,412.782,177.169Z" transform="translate(-337.77 -121.7)" fill="#24126a"/>
                  <path id="Path_466" data-name="Path 466" d="M417.828,180.084l-5.375-3.1a1.8,1.8,0,0,0-1.63.046l-5.015,2.929c-.469.275-.5.7-.069.947l5.375,3.1a1.8,1.8,0,0,0,1.632-.046l5.015-2.929C418.229,180.758,418.26,180.334,417.828,180.084Z" transform="translate(-334.516 -119.821)" fill="#24126a"/>
                  <path id="Path_467" data-name="Path 467" d="M422.875,183l-5.375-3.1a1.8,1.8,0,0,0-1.632.046l-5.013,2.929c-.47.275-.5.7-.069.947l5.375,3.1a1.8,1.8,0,0,0,1.632-.046l5.015-2.929C423.276,183.67,423.306,183.246,422.875,183Z" transform="translate(-331.262 -117.942)" fill="#24126a"/>
                  <path id="Path_468" data-name="Path 468" d="M427.922,185.912l-5.375-3.1a1.8,1.8,0,0,0-1.632.044l-5.015,2.931c-.469.273-.5.7-.067.947l5.375,3.1a1.8,1.8,0,0,0,1.63-.044l5.015-2.929C428.322,186.585,428.353,186.16,427.922,185.912Z" transform="translate(-328.009 -116.064)" fill="#24126a"/>
                  <path id="Path_469" data-name="Path 469" d="M432.968,188.825l-5.375-3.1a1.8,1.8,0,0,0-1.63.046l-5.015,2.929c-.469.275-.5.7-.069.947l5.375,3.1a1.8,1.8,0,0,0,1.632-.044l5.015-2.931C433.369,189.5,433.4,189.075,432.968,188.825Z" transform="translate(-324.755 -114.186)" fill="#24126a"/>
                  <path id="Path_470" data-name="Path 470" d="M438.015,191.739l-5.375-3.1a1.8,1.8,0,0,0-1.632.046l-5.015,2.929c-.469.275-.5.7-.067.947l5.375,3.1a1.8,1.8,0,0,0,1.632-.046l5.013-2.929C438.417,192.411,438.446,191.987,438.015,191.739Z" transform="translate(-321.501 -112.307)" fill="#24126a"/>
                  <path id="Path_471" data-name="Path 471" d="M401.5,154.539l-15.829-9.14a1.8,1.8,0,0,0-1.632.046l-5.015,2.929c-.469.275-.5.7-.067.947l15.829,9.14a1.8,1.8,0,0,0,1.632-.046l5.015-2.929C401.9,155.212,401.935,154.787,401.5,154.539Z" transform="translate(-351.783 -140.183)" fill="#24126a"/>
                  <path id="Path_472" data-name="Path 472" d="M463.5,190.334,447.672,181.2a1.794,1.794,0,0,0-1.632.044l-5.015,2.929c-.469.275-.5.7-.067.947l15.829,9.14a1.8,1.8,0,0,0,1.632-.046l5.015-2.929C463.9,191.008,463.934,190.584,463.5,190.334Z" transform="translate(-311.81 -117.104)" fill="#24126a"/>
                  <path id="Path_473" data-name="Path 473" d="M450.419,176.468l-5.375-3.1a1.8,1.8,0,0,0-1.632.046l-5.974,3.49c-.469.273-.5.7-.067.947l5.375,3.1a1.8,1.8,0,0,0,1.632-.044l5.974-3.49C450.82,177.14,450.85,176.716,450.419,176.468Z" transform="translate(-314.122 -122.153)" fill="#24126a"/>
                  <path id="Path_474" data-name="Path 474" d="M415.033,156.038l-8.6-4.964a1.8,1.8,0,0,0-1.632.046l-5.974,3.49c-.469.273-.5.7-.068.947l8.6,4.962a1.8,1.8,0,0,0,1.632-.044l5.974-3.49C415.434,156.711,415.465,156.286,415.033,156.038Z" transform="translate(-339.014 -136.524)" fill="#24126a"/>
                  <path id="Path_475" data-name="Path 475" d="M446.818,174.388l-8.6-4.962a1.8,1.8,0,0,0-1.63.046l-5.974,3.488c-.47.275-.5.7-.069.949l8.6,4.962a1.8,1.8,0,0,0,1.632-.046l5.974-3.488C447.22,175.063,447.251,174.638,446.818,174.388Z" transform="translate(-318.52 -124.692)" fill="#24126a"/>
                  <path id="Path_476" data-name="Path 476" d="M422.313,160.24l-8.6-4.962a1.8,1.8,0,0,0-1.63.046l-5.974,3.488c-.47.275-.5.7-.069.949l8.6,4.962a1.8,1.8,0,0,0,1.632-.046l5.974-3.488C422.715,160.915,422.746,160.49,422.313,160.24Z" transform="translate(-334.319 -133.813)" fill="#24126a"/>
                  <path id="Path_477" data-name="Path 477" d="M405.961,159.714l37.373,21.577a1.793,1.793,0,0,0,1.63.023l6.092-3.559c.436-.255.414-.679-.049-.947L413.635,155.23Z" transform="translate(-334.177 -133.732)" fill="#24126a"/>
                  <path id="Path_478" data-name="Path 478" d="M454.578,184.194l5.987,3.456a1.478,1.478,0,0,0,1.337-.036l2.442-1.428c.385-.225.41-.572.056-.778l-5.987-3.456a1.477,1.477,0,0,0-1.337.036l-2.442,1.428C454.249,183.641,454.224,183.988,454.578,184.194Z" transform="translate(-302.993 -116.596)" fill="#24126a"/>
                  <path id="Path_479" data-name="Path 479" d="M449.489,181.256l5.987,3.456a1.472,1.472,0,0,0,1.337-.036l2.444-1.428c.385-.225.41-.572.056-.776l-5.987-3.457a1.472,1.472,0,0,0-1.337.038l-2.444,1.428C449.16,180.7,449.135,181.052,449.489,181.256Z" transform="translate(-306.274 -118.49)" fill="#24126a"/>
                  <path id="Path_480" data-name="Path 480" d="M444.443,178.342l5.987,3.457a1.472,1.472,0,0,0,1.337-.038l2.442-1.428c.385-.224.41-.572.056-.776l-5.987-3.457a1.472,1.472,0,0,0-1.337.038l-2.442,1.428C444.114,177.791,444.089,178.138,444.443,178.342Z" transform="translate(-309.528 -120.369)" fill="#24126a"/>
                  <path id="Path_481" data-name="Path 481" d="M446.865,182.789l5.987,3.457a1.472,1.472,0,0,0,1.337-.038l2.444-1.428c.385-.225.41-.572.056-.776l-5.987-3.457a1.472,1.472,0,0,0-1.337.038l-2.444,1.428C446.536,182.236,446.511,182.585,446.865,182.789Z" transform="translate(-307.966 -117.501)" fill="#24126a"/>
                </g>
              </g>
            </g>
          </g>
        </g>
        <g id="Group_612" data-name="Group 612" transform="translate(73.037 155.89)" opacity="0.8">
          <path id="Path_483" data-name="Path 483" d="M322.515,187.846l-5.322-3.074c-.428-.247-.375-.678.118-.962l6.284-3.628a1.852,1.852,0,0,1,1.666-.069l5.324,3.074c.428.247.373.678-.12.962l-6.283,3.628A1.855,1.855,0,0,1,322.515,187.846Z" transform="translate(-316.903 -158.947)" fill="#24126a"/>
          <path id="Path_484" data-name="Path 484" d="M327.513,190.73l-5.322-3.072c-.428-.247-.375-.678.118-.962l6.285-3.628a1.852,1.852,0,0,1,1.666-.069l5.324,3.074c.428.247.373.678-.12.962l-6.283,3.627A1.85,1.85,0,0,1,327.513,190.73Z" transform="translate(-313.681 -157.087)" fill="#24126a"/>
          <path id="Path_485" data-name="Path 485" d="M332.511,193.616l-5.322-3.072c-.428-.248-.375-.679.118-.964l6.284-3.627a1.852,1.852,0,0,1,1.666-.069l5.324,3.072c.428.247.373.678-.12.964l-6.283,3.627A1.855,1.855,0,0,1,332.511,193.616Z" transform="translate(-310.458 -155.226)" fill="#24126a"/>
          <path id="Path_486" data-name="Path 486" d="M339.424,191l-5.324-3.074c-.428-.247-.373-.678.12-.962l5.275-3.044a1.852,1.852,0,0,1,1.666-.069l5.324,3.072c.428.247.373.678-.12.964l-5.275,3.044A1.852,1.852,0,0,1,339.424,191Z" transform="translate(-306.002 -156.534)" fill="#24126a"/>
          <path id="Path_487" data-name="Path 487" d="M344.422,193.892l-5.324-3.074c-.428-.247-.373-.678.12-.962l5.275-3.046a1.852,1.852,0,0,1,1.666-.069l5.324,3.074c.428.247.373.678-.12.962l-5.275,3.046A1.852,1.852,0,0,1,344.422,193.892Z" transform="translate(-302.779 -154.674)" fill="#24126a"/>
          <path id="Path_488" data-name="Path 488" d="M349.418,196.776,344.1,193.7c-.428-.247-.373-.678.12-.964l5.275-3.044a1.852,1.852,0,0,1,1.666-.069l5.324,3.072c.428.247.373.679-.12.964l-5.275,3.044A1.855,1.855,0,0,1,349.418,196.776Z" transform="translate(-299.557 -152.814)" fill="#24126a"/>
          <path id="Path_489" data-name="Path 489" d="M354.416,199.662l-5.322-3.074c-.428-.247-.373-.678.12-.962l5.275-3.044a1.847,1.847,0,0,1,1.666-.071l5.324,3.074c.428.247.373.678-.12.962l-5.275,3.046A1.855,1.855,0,0,1,354.416,199.662Z" transform="translate(-296.335 -150.953)" fill="#24126a"/>
          <path id="Path_490" data-name="Path 490" d="M359.414,202.547l-5.322-3.072c-.428-.247-.373-.678.12-.962l5.275-3.046a1.852,1.852,0,0,1,1.666-.069l5.324,3.074c.428.247.373.678-.12.962l-5.275,3.044A1.85,1.85,0,0,1,359.414,202.547Z" transform="translate(-293.112 -149.093)" fill="#24126a"/>
          <path id="Path_491" data-name="Path 491" d="M364.412,205.433l-5.322-3.074c-.428-.247-.373-.678.12-.962l5.275-3.044a1.847,1.847,0,0,1,1.666-.069l5.324,3.072c.428.247.373.678-.12.964l-5.275,3.044A1.855,1.855,0,0,1,364.412,205.433Z" transform="translate(-289.89 -147.232)" fill="#24126a"/>
          <path id="Path_492" data-name="Path 492" d="M369.41,208.32l-5.322-3.074c-.428-.247-.373-.678.12-.962l5.275-3.046a1.852,1.852,0,0,1,1.666-.069l5.324,3.074c.428.247.373.678-.12.962l-5.275,3.046A1.855,1.855,0,0,1,369.41,208.32Z" transform="translate(-286.667 -145.372)" fill="#24126a"/>
          <path id="Path_493" data-name="Path 493" d="M374.408,211.2l-5.322-3.072c-.428-.247-.373-.678.12-.964l5.275-3.044a1.852,1.852,0,0,1,1.666-.069l5.324,3.072c.428.247.373.678-.12.964l-5.275,3.044A1.855,1.855,0,0,1,374.408,211.2Z" transform="translate(-283.445 -143.511)" fill="#24126a"/>
          <path id="Path_494" data-name="Path 494" d="M379.406,214.091l-5.322-3.074c-.428-.247-.373-.678.12-.962l5.275-3.046a1.852,1.852,0,0,1,1.666-.069l5.324,3.074c.428.247.373.678-.12.962l-5.275,3.046A1.855,1.855,0,0,1,379.406,214.091Z" transform="translate(-280.223 -141.651)" fill="#24126a"/>
          <path id="Path_495" data-name="Path 495" d="M384.4,216.975l-5.322-3.072c-.428-.247-.373-.678.12-.964l5.275-3.044a1.852,1.852,0,0,1,1.666-.069l5.324,3.074c.428.247.373.678-.12.962l-5.275,3.044A1.85,1.85,0,0,1,384.4,216.975Z" transform="translate(-277 -139.791)" fill="#24126a"/>
          <path id="Path_496" data-name="Path 496" d="M346.788,189.639l-5.324-3.074c-.428-.247-.373-.678.12-.962l5.275-3.044a1.85,1.85,0,0,1,1.668-.069l5.322,3.072c.428.247.373.678-.12.962l-5.273,3.046A1.855,1.855,0,0,1,346.788,189.639Z" transform="translate(-301.254 -157.415)" fill="#24126a"/>
          <path id="Path_497" data-name="Path 497" d="M341.715,186.71l-5.322-3.072c-.428-.247-.375-.678.12-.964l5.273-3.044a1.855,1.855,0,0,1,1.668-.069l5.322,3.072c.428.247.375.679-.118.964l-5.275,3.044A1.855,1.855,0,0,1,341.715,186.71Z" transform="translate(-304.524 -159.303)" fill="#24126a"/>
          <path id="Path_498" data-name="Path 498" d="M339.041,185.167l-11.464-6.62c-.428-.247-.373-.678.12-.962l5.273-3.044a1.85,1.85,0,0,1,1.668-.069L346.1,181.09c.426.247.373.678-.12.962l-5.275,3.046A1.855,1.855,0,0,1,339.041,185.167Z" transform="translate(-310.207 -162.585)" fill="#24126a"/>
          <path id="Path_499" data-name="Path 499" d="M341.746,181.11l-9.3-5.372c-.428-.247-.373-.678.12-.962l5.275-3.044a1.852,1.852,0,0,1,1.666-.069l9.3,5.372c.428.247.373.678-.12.962l-5.273,3.044A1.85,1.85,0,0,1,341.746,181.11Z" transform="translate(-307.071 -164.395)" fill="#24126a"/>
          <path id="Path_500" data-name="Path 500" d="M351.786,192.524l-5.324-3.072c-.428-.247-.373-.678.12-.962l5.275-3.046a1.855,1.855,0,0,1,1.668-.069l5.322,3.074c.428.247.373.678-.12.962l-5.273,3.044A1.85,1.85,0,0,1,351.786,192.524Z" transform="translate(-298.032 -155.555)" fill="#24126a"/>
          <path id="Path_501" data-name="Path 501" d="M356.784,195.41l-5.324-3.072c-.428-.248-.373-.679.12-.964l5.275-3.044a1.855,1.855,0,0,1,1.668-.069l5.322,3.072c.428.247.373.678-.12.964l-5.273,3.044A1.855,1.855,0,0,1,356.784,195.41Z" transform="translate(-294.809 -153.694)" fill="#24126a"/>
          <path id="Path_502" data-name="Path 502" d="M361.782,198.3l-5.324-3.074c-.428-.247-.373-.678.12-.962l5.275-3.046a1.855,1.855,0,0,1,1.668-.069l5.322,3.074c.428.247.373.678-.12.962l-5.273,3.046A1.855,1.855,0,0,1,361.782,198.3Z" transform="translate(-291.587 -151.834)" fill="#24126a"/>
          <path id="Path_503" data-name="Path 503" d="M366.78,201.181l-5.324-3.072c-.428-.247-.373-.678.12-.964l5.275-3.044a1.855,1.855,0,0,1,1.668-.069l5.322,3.072c.428.248.373.679-.12.964l-5.275,3.044A1.852,1.852,0,0,1,366.78,201.181Z" transform="translate(-288.364 -149.973)" fill="#24126a"/>
          <path id="Path_504" data-name="Path 504" d="M371.778,204.067l-5.324-3.074c-.428-.247-.373-.678.12-.962l5.275-3.044a1.845,1.845,0,0,1,1.668-.069l5.322,3.072c.428.247.373.678-.12.962L373.444,204A1.852,1.852,0,0,1,371.778,204.067Z" transform="translate(-285.142 -148.113)" fill="#24126a"/>
          <path id="Path_505" data-name="Path 505" d="M376.776,206.952l-5.324-3.072c-.428-.247-.373-.678.12-.962l5.275-3.046a1.855,1.855,0,0,1,1.668-.069l5.322,3.074c.428.247.373.678-.12.962l-5.275,3.044A1.847,1.847,0,0,1,376.776,206.952Z" transform="translate(-281.92 -146.253)" fill="#24126a"/>
          <path id="Path_506" data-name="Path 506" d="M381.774,209.838l-5.324-3.074c-.428-.247-.373-.678.12-.962l5.275-3.044a1.85,1.85,0,0,1,1.668-.069l5.322,3.072c.428.247.373.678-.12.964l-5.275,3.044A1.852,1.852,0,0,1,381.774,209.838Z" transform="translate(-278.697 -144.392)" fill="#24126a"/>
          <path id="Path_507" data-name="Path 507" d="M386.772,212.725l-5.324-3.074c-.428-.247-.373-.678.12-.962l5.275-3.046a1.855,1.855,0,0,1,1.668-.069l5.322,3.074c.428.247.373.678-.12.962l-5.275,3.046A1.852,1.852,0,0,1,386.772,212.725Z" transform="translate(-275.475 -142.532)" fill="#24126a"/>
          <path id="Path_508" data-name="Path 508" d="M391.77,215.609l-5.324-3.072c-.428-.247-.373-.678.12-.964l5.275-3.044a1.855,1.855,0,0,1,1.668-.069l5.322,3.072c.428.247.373.679-.12.964l-5.275,3.044A1.852,1.852,0,0,1,391.77,215.609Z" transform="translate(-272.253 -140.671)" fill="#24126a"/>
          <path id="Path_509" data-name="Path 509" d="M403.121,222.163l-11.615-6.706c-.426-.247-.373-.678.12-.962l5.275-3.046a1.855,1.855,0,0,1,1.668-.069l11.613,6.706c.428.247.375.678-.12.964l-5.273,3.044A1.855,1.855,0,0,1,403.121,222.163Z" transform="translate(-268.99 -138.788)" fill="#24126a"/>
          <path id="Path_510" data-name="Path 510" d="M412.141,216.135l-9.8-5.66c-.428-.247-.373-.678.12-.962l5.275-3.046a1.855,1.855,0,0,1,1.668-.069l9.8,5.66c.428.248.373.679-.12.964l-5.275,3.044A1.855,1.855,0,0,1,412.141,216.135Z" transform="translate(-262.006 -142)" fill="#24126a"/>
          <path id="Path_511" data-name="Path 511" d="M360.537,191.96l-5.322-3.074c-.428-.247-.373-.678.12-.962l5.273-3.044a1.85,1.85,0,0,1,1.668-.069l5.324,3.072c.426.247.373.678-.12.962l-5.275,3.046A1.855,1.855,0,0,1,360.537,191.96Z" transform="translate(-292.388 -155.919)" fill="#24126a"/>
          <path id="Path_512" data-name="Path 512" d="M355.416,189l-5.322-3.074c-.428-.247-.375-.678.118-.962l5.275-3.046a1.855,1.855,0,0,1,1.668-.069l5.322,3.074c.428.247.375.678-.118.962l-5.275,3.044A1.85,1.85,0,0,1,355.416,189Z" transform="translate(-295.691 -157.826)" fill="#24126a"/>
          <path id="Path_513" data-name="Path 513" d="M350.294,186.045l-5.324-3.072c-.428-.247-.373-.678.12-.964l5.275-3.044a1.855,1.855,0,0,1,1.668-.069l5.322,3.072c.428.247.373.678-.12.964l-5.275,3.044A1.852,1.852,0,0,1,350.294,186.045Z" transform="translate(-298.993 -159.732)" fill="#24126a"/>
          <path id="Path_514" data-name="Path 514" d="M345.17,183.089l-5.322-3.074c-.428-.247-.373-.678.12-.962l5.273-3.046a1.855,1.855,0,0,1,1.668-.069l5.324,3.074c.428.247.373.678-.12.962l-5.275,3.046A1.855,1.855,0,0,1,345.17,183.089Z" transform="translate(-302.296 -161.639)" fill="#24126a"/>
          <path id="Path_515" data-name="Path 515" d="M365.535,194.845l-5.322-3.072c-.428-.247-.373-.678.12-.962l5.273-3.046a1.855,1.855,0,0,1,1.668-.069l5.324,3.074c.426.247.373.678-.12.962l-5.275,3.044A1.85,1.85,0,0,1,365.535,194.845Z" transform="translate(-289.166 -154.058)" fill="#24126a"/>
          <path id="Path_516" data-name="Path 516" d="M370.533,197.731l-5.322-3.072c-.428-.248-.373-.679.12-.964l5.273-3.044a1.855,1.855,0,0,1,1.668-.069l5.324,3.072c.426.247.373.678-.12.964l-5.275,3.044A1.855,1.855,0,0,1,370.533,197.731Z" transform="translate(-285.943 -152.198)" fill="#24126a"/>
          <path id="Path_517" data-name="Path 517" d="M375.531,200.618l-5.322-3.074c-.428-.247-.373-.678.12-.962l5.273-3.046a1.855,1.855,0,0,1,1.668-.069l5.324,3.074c.426.247.373.678-.12.962l-5.275,3.046A1.855,1.855,0,0,1,375.531,200.618Z" transform="translate(-282.721 -150.338)" fill="#24126a"/>
          <path id="Path_518" data-name="Path 518" d="M380.529,203.5l-5.322-3.072c-.428-.247-.373-.678.12-.964l5.273-3.044a1.855,1.855,0,0,1,1.668-.069l5.324,3.072c.426.247.373.679-.12.964l-5.275,3.044A1.855,1.855,0,0,1,380.529,203.5Z" transform="translate(-279.499 -148.477)" fill="#24126a"/>
          <path id="Path_519" data-name="Path 519" d="M385.527,206.388l-5.322-3.074c-.428-.247-.373-.678.12-.962l5.273-3.044a1.845,1.845,0,0,1,1.668-.069l5.324,3.072c.426.247.373.678-.12.962l-5.275,3.046A1.855,1.855,0,0,1,385.527,206.388Z" transform="translate(-276.276 -146.617)" fill="#24126a"/>
          <path id="Path_520" data-name="Path 520" d="M390.525,209.273,385.2,206.2c-.428-.247-.373-.678.12-.962l5.273-3.046a1.855,1.855,0,0,1,1.668-.069l5.324,3.074c.426.247.373.678-.12.962l-5.275,3.044A1.85,1.85,0,0,1,390.525,209.273Z" transform="translate(-273.054 -144.756)" fill="#24126a"/>
          <path id="Path_521" data-name="Path 521" d="M395.523,212.159l-5.322-3.074c-.428-.247-.373-.678.12-.962l5.273-3.044a1.855,1.855,0,0,1,1.668-.069l5.324,3.072c.426.247.373.678-.12.964l-5.275,3.044A1.855,1.855,0,0,1,395.523,212.159Z" transform="translate(-269.832 -142.896)" fill="#24126a"/>
          <path id="Path_522" data-name="Path 522" d="M400.521,215.046l-5.322-3.074c-.428-.247-.373-.678.12-.962l5.273-3.046a1.855,1.855,0,0,1,1.668-.069l5.324,3.074c.426.247.373.678-.12.962l-5.275,3.046A1.855,1.855,0,0,1,400.521,215.046Z" transform="translate(-266.609 -141.035)" fill="#24126a"/>
          <path id="Path_523" data-name="Path 523" d="M405.52,217.93l-5.322-3.072c-.428-.247-.375-.678.12-.964l5.273-3.044a1.855,1.855,0,0,1,1.668-.069l5.324,3.072c.426.247.373.679-.12.964l-5.275,3.044A1.855,1.855,0,0,1,405.52,217.93Z" transform="translate(-263.387 -139.175)" fill="#24126a"/>
          <path id="Path_524" data-name="Path 524" d="M357.907,184.824l-5.324-3.074c-.428-.247-.373-.678.12-.962l5.275-3.046a1.852,1.852,0,0,1,1.666-.069l5.324,3.074c.428.247.373.678-.12.962l-5.275,3.046A1.852,1.852,0,0,1,357.907,184.824Z" transform="translate(-294.085 -160.521)" fill="#24126a"/>
          <path id="Path_525" data-name="Path 525" d="M352.932,181.951l-5.322-3.072c-.428-.247-.373-.678.12-.964L353,174.87a1.852,1.852,0,0,1,1.666-.069l5.324,3.074c.428.247.373.678-.12.962l-5.275,3.044A1.85,1.85,0,0,1,352.932,181.951Z" transform="translate(-297.291 -162.372)" fill="#24126a"/>
          <path id="Path_526" data-name="Path 526" d="M347.959,179.08l-5.322-3.072c-.428-.247-.373-.679.12-.964L348.03,172a1.855,1.855,0,0,1,1.668-.069L355.022,175c.426.247.373.678-.12.964l-5.275,3.044A1.855,1.855,0,0,1,347.959,179.08Z" transform="translate(-300.498 -164.223)" fill="#24126a"/>
          <path id="Path_527" data-name="Path 527" d="M342.987,176.209l-5.322-3.074c-.428-.247-.375-.678.12-.962l5.273-3.044a1.85,1.85,0,0,1,1.668-.069l5.322,3.072c.428.247.375.678-.118.962l-5.275,3.046A1.855,1.855,0,0,1,342.987,176.209Z" transform="translate(-303.704 -166.074)" fill="#24126a"/>
          <path id="Path_528" data-name="Path 528" d="M348.1,172.457l-5.322-3.072c-.428-.247-.375-.678.118-.964l1.743-1.007a1.855,1.855,0,0,1,1.668-.069l5.324,3.074c.428.247.373.678-.12.962l-1.743,1.007A1.85,1.85,0,0,1,348.1,172.457Z" transform="translate(-300.407 -167.179)" fill="#24126a"/>
          <path id="Path_529" data-name="Path 529" d="M354.591,176.2l-5.322-3.072c-.428-.247-.375-.678.118-.964l1.743-1.007a1.855,1.855,0,0,1,1.668-.069l5.324,3.074c.426.247.373.678-.12.962l-1.743,1.007A1.85,1.85,0,0,1,354.591,176.2Z" transform="translate(-296.223 -164.763)" fill="#24126a"/>
          <path id="Path_530" data-name="Path 530" d="M359.542,179.064l-5.322-3.074c-.428-.247-.373-.678.12-.962l1.743-1.007a1.85,1.85,0,0,1,1.668-.069l5.322,3.072c.428.247.373.678-.12.964L361.21,179A1.855,1.855,0,0,1,359.542,179.064Z" transform="translate(-293.03 -162.919)" fill="#24126a"/>
          <path id="Path_531" data-name="Path 531" d="M364.5,181.923l-5.324-3.074c-.426-.247-.373-.678.12-.962l1.743-1.007a1.855,1.855,0,0,1,1.668-.069l5.322,3.072c.428.247.375.679-.118.964l-1.743,1.007A1.855,1.855,0,0,1,364.5,181.923Z" transform="translate(-289.837 -161.076)" fill="#24126a"/>
          <path id="Path_532" data-name="Path 532" d="M369.448,184.782l-5.322-3.072c-.428-.247-.375-.679.12-.964l1.743-1.007a1.852,1.852,0,0,1,1.666-.069l5.324,3.074c.428.247.373.678-.12.962l-1.743,1.007A1.855,1.855,0,0,1,369.448,184.782Z" transform="translate(-286.644 -159.232)" fill="#24126a"/>
          <path id="Path_533" data-name="Path 533" d="M397.1,200.745l-5.324-3.074c-.428-.247-.373-.678.12-.962l1.743-1.007a1.855,1.855,0,0,1,1.668-.069l5.322,3.074c.428.247.375.678-.118.962l-1.745,1.007A1.852,1.852,0,0,1,397.1,200.745Z" transform="translate(-268.818 -148.941)" fill="#24126a"/>
          <path id="Path_534" data-name="Path 534" d="M402.049,203.6l-5.322-3.072c-.428-.247-.375-.678.118-.964l1.745-1.007a1.852,1.852,0,0,1,1.666-.069l5.324,3.074c.428.247.373.678-.12.962l-1.743,1.007A1.855,1.855,0,0,1,402.049,203.6Z" transform="translate(-265.625 -147.097)" fill="#24126a"/>
          <path id="Path_535" data-name="Path 535" d="M407,206.464l-5.322-3.074c-.428-.247-.373-.678.12-.962l1.743-1.007a1.85,1.85,0,0,1,1.668-.069l5.322,3.072c.428.247.373.678-.12.962l-1.743,1.007A1.851,1.851,0,0,1,407,206.464Z" transform="translate(-262.432 -145.254)" fill="#24126a"/>
          <path id="Path_536" data-name="Path 536" d="M411.954,209.323l-5.324-3.074c-.426-.247-.373-.678.12-.962l1.743-1.007a1.855,1.855,0,0,1,1.668-.069l5.324,3.072c.426.247.373.678-.12.964l-1.743,1.007A1.855,1.855,0,0,1,411.954,209.323Z" transform="translate(-259.239 -143.41)" fill="#24126a"/>
          <path id="Path_537" data-name="Path 537" d="M362.905,187.708l-5.324-3.072c-.428-.247-.373-.678.12-.964l5.275-3.044a1.852,1.852,0,0,1,1.666-.069l5.324,3.072c.428.247.373.678-.12.964l-5.275,3.044A1.852,1.852,0,0,1,362.905,187.708Z" transform="translate(-290.863 -158.66)" fill="#24126a"/>
          <path id="Path_538" data-name="Path 538" d="M367.9,190.595l-5.324-3.074c-.428-.247-.373-.678.12-.962l5.275-3.046a1.852,1.852,0,0,1,1.666-.069l5.324,3.074c.428.247.373.678-.12.962l-5.275,3.046A1.852,1.852,0,0,1,367.9,190.595Z" transform="translate(-287.64 -156.8)" fill="#24126a"/>
          <path id="Path_539" data-name="Path 539" d="M372.9,193.479l-5.322-3.072c-.428-.247-.373-.678.12-.964l5.275-3.044a1.852,1.852,0,0,1,1.666-.069l5.324,3.074c.428.247.373.678-.12.962l-5.275,3.044A1.85,1.85,0,0,1,372.9,193.479Z" transform="translate(-284.418 -154.939)" fill="#24126a"/>
          <path id="Path_540" data-name="Path 540" d="M377.9,196.365l-5.322-3.074c-.428-.247-.373-.678.12-.962l5.275-3.044a1.847,1.847,0,0,1,1.666-.069l5.324,3.072c.428.247.373.678-.12.962l-5.275,3.046A1.855,1.855,0,0,1,377.9,196.365Z" transform="translate(-281.196 -153.079)" fill="#24126a"/>
          <path id="Path_541" data-name="Path 541" d="M382.9,199.25l-5.322-3.072c-.428-.247-.373-.678.12-.962l5.275-3.046a1.852,1.852,0,0,1,1.666-.069l5.324,3.074c.428.247.373.678-.12.962l-5.275,3.044A1.845,1.845,0,0,1,382.9,199.25Z" transform="translate(-277.973 -151.218)" fill="#24126a"/>
          <path id="Path_542" data-name="Path 542" d="M387.893,202.136l-5.322-3.072c-.428-.247-.373-.679.12-.964l5.275-3.044a1.852,1.852,0,0,1,1.666-.069l5.324,3.072c.428.247.373.678-.12.964l-5.275,3.044A1.855,1.855,0,0,1,387.893,202.136Z" transform="translate(-274.751 -149.358)" fill="#24126a"/>
          <path id="Path_543" data-name="Path 543" d="M392.891,205.023l-5.322-3.074c-.428-.247-.373-.678.12-.962l5.275-3.046a1.852,1.852,0,0,1,1.666-.069l5.324,3.074c.428.247.373.678-.12.962l-5.275,3.046A1.855,1.855,0,0,1,392.891,205.023Z" transform="translate(-271.528 -147.498)" fill="#24126a"/>
          <path id="Path_544" data-name="Path 544" d="M397.889,207.907l-5.322-3.072c-.428-.247-.373-.678.12-.964l5.275-3.044a1.852,1.852,0,0,1,1.666-.069l5.324,3.074c.428.247.373.678-.12.962l-5.275,3.044A1.855,1.855,0,0,1,397.889,207.907Z" transform="translate(-268.306 -145.637)" fill="#24126a"/>
          <path id="Path_545" data-name="Path 545" d="M402.887,210.793l-5.322-3.074c-.428-.247-.373-.678.12-.962l5.275-3.044a1.847,1.847,0,0,1,1.666-.069l5.324,3.072c.428.247.373.678-.12.962l-5.275,3.046A1.855,1.855,0,0,1,402.887,210.793Z" transform="translate(-265.084 -143.776)" fill="#24126a"/>
          <path id="Path_546" data-name="Path 546" d="M338.388,190.407l-15.676-9.051c-.428-.247-.375-.678.118-.962l5.275-3.044a1.85,1.85,0,0,1,1.668-.069l15.678,9.051c.426.247.373.678-.12.962l-5.275,3.044A1.85,1.85,0,0,1,338.388,190.407Z" transform="translate(-313.344 -160.774)" fill="#24126a"/>
          <path id="Path_547" data-name="Path 547" d="M399.791,225.859l-15.678-9.051c-.428-.248-.373-.679.12-.964l5.275-3.044a1.852,1.852,0,0,1,1.666-.069l15.678,9.051c.428.247.373.678-.12.962l-5.275,3.046A1.852,1.852,0,0,1,399.791,225.859Z" transform="translate(-273.757 -137.918)" fill="#24126a"/>
          <path id="Path_548" data-name="Path 548" d="M375.744,218.578l-5.322-3.074c-.428-.247-.375-.678.118-.962l6.284-3.628a1.852,1.852,0,0,1,1.666-.069l5.324,3.074c.428.247.373.678-.12.962l-6.283,3.628A1.855,1.855,0,0,1,375.744,218.578Z" transform="translate(-282.585 -139.134)" fill="#24126a"/>
          <path id="Path_549" data-name="Path 549" d="M340.7,198.343l-8.513-4.914c-.428-.247-.375-.678.118-.962l6.283-3.628a1.855,1.855,0,0,1,1.668-.069l8.513,4.916c.428.247.373.678-.12.962l-6.283,3.627A1.847,1.847,0,0,1,340.7,198.343Z" transform="translate(-307.236 -153.366)" fill="#24126a"/>
          <path id="Path_550" data-name="Path 550" d="M372.178,216.518l-8.513-4.914c-.426-.247-.373-.678.12-.962l6.283-3.628a1.855,1.855,0,0,1,1.668-.069l8.513,4.915c.428.247.373.679-.12.964l-6.283,3.627A1.85,1.85,0,0,1,372.178,216.518Z" transform="translate(-286.94 -141.648)" fill="#24126a"/>
          <path id="Path_551" data-name="Path 551" d="M347.91,202.508l-8.513-4.916c-.428-.247-.375-.678.118-.962L345.8,193a1.842,1.842,0,0,1,1.666-.069l8.513,4.914c.428.247.375.678-.12.962l-6.283,3.628A1.852,1.852,0,0,1,347.91,202.508Z" transform="translate(-302.587 -150.682)" fill="#24126a"/>
          <path id="Path_552" data-name="Path 552" d="M347.388,192.888,384.4,214.256a.507.507,0,0,1,0,.96l-6.408,3.7a1.84,1.84,0,0,1-1.663,0l-37.011-21.368Z" transform="translate(-302.451 -150.603)" fill="#24126a"/>
          <path id="Path_553" data-name="Path 553" d="M389.188,220.767l5.929,3.423c.35.2.306.556-.1.789l-2.571,1.484a1.519,1.519,0,0,1-1.367.056l-5.929-3.423c-.35-.2-.306-.556.1-.789l2.571-1.484A1.519,1.519,0,0,1,389.188,220.767Z" transform="translate(-273.054 -132.717)" fill="#24126a"/>
          <path id="Path_554" data-name="Path 554" d="M384.147,217.857l5.929,3.423c.35.2.306.556-.1.789l-2.571,1.484a1.519,1.519,0,0,1-1.367.058l-5.929-3.424c-.35-.2-.306-.554.1-.788l2.569-1.485A1.519,1.519,0,0,1,384.147,217.857Z" transform="translate(-276.302 -134.593)" fill="#24126a"/>
          <path id="Path_555" data-name="Path 555" d="M379.149,214.97l5.929,3.424c.35.2.308.556-.1.79l-2.571,1.484a1.519,1.519,0,0,1-1.367.056l-5.929-3.423c-.35-.2-.306-.556.1-.789l2.569-1.484A1.519,1.519,0,0,1,379.149,214.97Z" transform="translate(-279.525 -136.454)" fill="#24126a"/>
          <path id="Path_556" data-name="Path 556" d="M386.907,216.264l5.929,3.423c.35.2.306.556-.1.789l-2.571,1.484a1.519,1.519,0,0,1-1.367.056l-5.929-3.423c-.35-.2-.306-.556.1-.789l2.569-1.484A1.519,1.519,0,0,1,386.907,216.264Z" transform="translate(-274.523 -135.62)" fill="#24126a"/>
        </g>
      </g>
      <g id="Group_614" data-name="Group 614" transform="translate(266.243 103.139)">
        <path id="Path_557" data-name="Path 557" d="M437.414,140.6a2.493,2.493,0,0,1-1.24-.357,3.627,3.627,0,0,1-1.737-3.666,1.838,1.838,0,0,1,1.041-1.326,2.21,2.21,0,0,1,1.974.209,3.632,3.632,0,0,1,1.737,3.668h0a1.781,1.781,0,0,1-1.775,1.472Zm-1.2-4.926a1.208,1.208,0,0,0-1.219,1.031,3.02,3.02,0,0,0,1.467,3.044,1.637,1.637,0,0,0,1.459.179,1.279,1.279,0,0,0,.715-.929,3.028,3.028,0,0,0-1.469-3.046A1.929,1.929,0,0,0,436.212,135.675Z" transform="translate(-434.373 -135.106)" fill="#42e8e0"/>
        <path id="Path_558" data-name="Path 558" d="M441.534,142.98a2.491,2.491,0,0,1-1.239-.357,3.629,3.629,0,0,1-1.737-3.668,1.838,1.838,0,0,1,1.041-1.324,2.206,2.206,0,0,1,1.974.209,3.64,3.64,0,0,1,1.738,3.668h0a1.784,1.784,0,0,1-1.778,1.472Zm-1.2-4.926a1.266,1.266,0,0,0-.507.1,1.282,1.282,0,0,0-.712.931,3.028,3.028,0,0,0,1.465,3.046,1.651,1.651,0,0,0,1.461.179,1.286,1.286,0,0,0,.715-.931h0a3.036,3.036,0,0,0-1.469-3.046A1.941,1.941,0,0,0,440.333,138.054Z" transform="translate(-431.716 -133.572)" fill="#42e8e0"/>
        <path id="Path_559" data-name="Path 559" d="M447.042,143.711a1.621,1.621,0,0,1-2.594.934,3.328,3.328,0,0,1-1.6-3.357,1.622,1.622,0,0,1,2.6-.933A3.323,3.323,0,0,1,447.042,143.711Z" transform="translate(-428.948 -131.927)" fill="#42e8e0"/>
      </g>
      <path id="Path_560" data-name="Path 560" d="M367.779,98.277l-3.625-2.093.281-1.676L368.06,96.6Z" transform="translate(-213.402 -58.142)" fill="#42e8e0"/>
      <path id="Path_561" data-name="Path 561" d="M370.983,100.126l-3.625-2.093.281-1.676,3.625,2.093Z" transform="translate(-211.337 -56.949)" fill="#42e8e0"/>
      <path id="Path_562" data-name="Path 562" d="M366.3,97.425l-7.95-4.59.281-1.676,7.95,4.59Z" transform="translate(-217.142 -60.301)" fill="#42e8e0"/>
    </g>
    <g id="Group_623" data-name="Group 623" transform="translate(611.634 291.532)">
      <g id="Group_622" data-name="Group 622" transform="translate(0 91.638)">
        <path id="Path_563" data-name="Path 563" d="M495.6,304.887a12.554,12.554,0,0,1-6.133-1.462L456.932,284.64c-1.689-.975-2.62-2.293-2.62-3.706s.931-2.73,2.62-3.706l32.533-18.783a13.594,13.594,0,0,1,12.265,0l32.535,18.785c1.688.975,2.617,2.291,2.617,3.7s-.928,2.73-2.617,3.707L501.73,303.425A12.547,12.547,0,0,1,495.6,304.887Zm-5.847-1.957a12.926,12.926,0,0,0,11.692,0l32.534-18.783c1.507-.868,2.335-2.011,2.335-3.212s-.831-2.34-2.335-3.209l-32.534-18.784a12.926,12.926,0,0,0-11.692,0l-32.533,18.783c-1.507.868-2.336,2.01-2.336,3.211s.829,2.342,2.336,3.21Z" transform="translate(-453.299 -232.03)" fill="#42e8e0"/>
        <g id="Group_621" data-name="Group 621">
          <path id="Path_564" data-name="Path 564" d="M538.293,272.212v-11.14l-2.038-1.135c-.576,3.479-4.671,5.771-8.094,6.248l-23.312,13.632-10.173,3.674L462.2,266.733l.75-.434c-2.776-1.3-4.271-4.262-5.771-6.967l-2.186,1.3-1.3.365V272.33h0c0,1.444.952,2.888,2.857,3.988L489.087,295.1a15.291,15.291,0,0,0,13.816,0l32.534-18.783c1.873-1.082,2.826-2.5,2.855-3.918,0-.064,0-.127,0-.191Z" transform="translate(-453.696 -230.517)" fill="#42e8e0" opacity="0.4"/>
          <g id="Group_620" data-name="Group 620">
            <g id="Group_619" data-name="Group 619">
              <path id="Path_565" data-name="Path 565" d="M538.293,264.713v-7.37l-2.038-1.135c-.576,3.479-4.671,5.771-8.094,6.248l-23.312,13.632-10.173,3.674L462.2,263l.75-.434c-2.776-1.3-4.271-4.262-5.771-6.967l-2.186,1.3-1.3.363v7.561h0c0,1.444.952,2.888,2.857,3.988L489.087,287.6a15.291,15.291,0,0,0,13.816,0l32.534-18.783c1.873-1.082,2.826-2.5,2.855-3.918,0-.064,0-.127,0-.191Z" transform="translate(-453.696 -232.921)" fill="url(#linear-gradient-11)"/>
              <path id="Path_566" data-name="Path 566" d="M511.58,262.181l-23.312,13.632-8.854,3.2v9.967a14.119,14.119,0,0,0,6.908-1.65l32.534-18.783c1.873-1.082,2.826-2.5,2.855-3.918,0-.064,0-.127,0-.191l0,0v-7.37l-1.862-1.038h-.2C519.019,259.454,514.971,261.709,511.58,262.181Z" transform="translate(-437.115 -232.646)" fill="#0f054c" opacity="0.3"/>
              <path id="Path_567" data-name="Path 567" d="M461.586,270.769l30.829-17.8a4.9,4.9,0,0,1,4.424,0l30.291,17.488-.336.2c3.423-.477,7.518-2.77,8.094-6.248l-34-18.908L491,242.886l-8.054,4.734L455.815,263.8C457.315,266.508,458.81,269.473,461.586,270.769Z" transform="translate(-452.33 -241.12)" fill="url(#linear-gradient-12)"/>
              <path id="Path_568" data-name="Path 568" d="M494.629,243.845,491,242.886l-8.054,4.734L455.815,263.8c1.5,2.706,3,5.671,5.771,6.967l30.829-17.8a4.534,4.534,0,0,1,2.214-.528Z" transform="translate(-452.33 -241.12)" fill="#0f054c" opacity="0.3"/>
              <g id="Group_616" data-name="Group 616">
                <path id="Path_569" data-name="Path 569" d="M489.087,289.006l-32.534-18.785c-3.809-2.2-3.809-5.778,0-7.977l32.533-18.783a15.3,15.3,0,0,1,13.817,0l32.533,18.785c3.809,2.2,3.811,5.778,0,7.977L502.9,289.006A15.292,15.292,0,0,1,489.087,289.006Zm9.118-42.832a4.9,4.9,0,0,0-4.424,0l-32.533,18.783a1.349,1.349,0,0,0,0,2.554l32.534,18.783a4.9,4.9,0,0,0,4.424,0l32.533-18.783a1.349,1.349,0,0,0,0-2.554Z" transform="translate(-453.696 -241.812)" fill="url(#linear-gradient-13)"/>
              </g>
              <g id="Group_617" data-name="Group 617" transform="translate(0.002 3.833)">
                <path id="Path_570" data-name="Path 570" d="M528.137,263.454,495.6,244.671a4.9,4.9,0,0,0-4.424,0l-32.533,18.783c-.812.469-1.081,1.135-.809,1.737a1.885,1.885,0,0,1,.809-.819l32.533-18.783a4.9,4.9,0,0,1,4.424,0l32.534,18.785a1.873,1.873,0,0,1,.809.817C529.219,264.59,528.951,263.924,528.137,263.454Z" transform="translate(-451.095 -244.143)" fill="#fff"/>
                <path id="Path_571" data-name="Path 571" d="M535.437,260.47,502.9,279.253a15.292,15.292,0,0,1-13.816,0l-32.534-18.785a5.132,5.132,0,0,1-2.822-3.53c-.224,1.594.715,3.232,2.822,4.449l32.534,18.783a15.291,15.291,0,0,0,13.816,0l32.535-18.783c2.105-1.215,3.044-2.854,2.822-4.447A5.135,5.135,0,0,1,535.437,260.47Z" transform="translate(-453.697 -235.893)" fill="#fff"/>
              </g>
              <g id="Group_618" data-name="Group 618" transform="translate(1.299 0.75)">
                <path id="Path_572" data-name="Path 572" d="M489.5,288.181,456.963,269.4c-3.3-1.908-3.3-5.01,0-6.916L489.5,243.7a13.25,13.25,0,0,1,11.979,0l32.535,18.783c3.3,1.908,3.3,5.01,0,6.916l-32.533,18.783A13.254,13.254,0,0,1,489.5,288.181Zm9.12-42.832a6.93,6.93,0,0,0-6.261,0l-32.533,18.783c-1.727,1-1.727,2.618,0,3.615l32.533,18.784a6.933,6.933,0,0,0,6.263,0l32.533-18.783c1.725-1,1.725-2.618,0-3.615Z" transform="translate(-454.486 -242.268)" fill="url(#linear-gradient-13)"/>
              </g>
            </g>
            <path id="Path_573" data-name="Path 573" d="M495.6,244.671a4.9,4.9,0,0,0-4.424,0l-32.533,18.783a1.349,1.349,0,0,0,0,2.554l32.534,18.783a4.9,4.9,0,0,0,4.424,0l32.533-18.783a1.349,1.349,0,0,0,0-2.554Z" transform="translate(-451.094 -240.31)" fill="#42e8e0" opacity="0.4"/>
          </g>
        </g>
      </g>
      <path id="Path_574" data-name="Path 574" d="M529.049,302.13V186.1H457.732l0,116.034a1.535,1.535,0,0,0,.91,1.3l32.534,18.783a4.9,4.9,0,0,0,4.424,0l32.533-18.783A1.532,1.532,0,0,0,529.049,302.13Z" transform="translate(-451.094 -186.096)" opacity="0.5" fill="url(#linear-gradient-15)"/>
    </g>
    <g id="Group_630" data-name="Group 630" transform="translate(280.702 145.536)">
      <g id="Group_629" data-name="Group 629">
        <path id="Path_575" data-name="Path 575" d="M294.391,160.406a12.53,12.53,0,0,1-6.132-1.464l-32.534-18.785c-1.689-.974-2.62-2.291-2.62-3.7s.931-2.73,2.62-3.7l32.533-18.785a13.565,13.565,0,0,1,12.263,0l32.536,18.783c1.687.975,2.617,2.291,2.617,3.7s-.929,2.73-2.617,3.7l-32.534,18.785A12.53,12.53,0,0,1,294.391,160.406Zm-5.847-1.957a12.95,12.95,0,0,0,11.694,0l32.533-18.783c1.5-.87,2.336-2.01,2.336-3.212s-.831-2.34-2.336-3.211l-32.533-18.785a12.953,12.953,0,0,0-11.7,0L256.01,133.241c-1.5.87-2.336,2.01-2.336,3.212s.831,2.342,2.336,3.212Z" transform="translate(-252.092 -87.549)" fill="#42e8e0"/>
        <g id="Group_628" data-name="Group 628">
          <path id="Path_576" data-name="Path 576" d="M337.086,127.73V116.588l-2.038-1.133c-.576,3.479-4.671,5.771-8.094,6.247l-23.312,13.633-10.173,3.674-32.475-16.76.752-.433c-2.776-1.3-4.271-4.262-5.771-6.967l-2.187,1.3-1.3.365v11.329h0c0,1.446.952,2.89,2.857,3.989L287.88,150.62a15.292,15.292,0,0,0,13.816,0l32.533-18.783c1.873-1.082,2.826-2.5,2.857-3.919,0-.062,0-.127-.005-.189Z" transform="translate(-252.489 -86.035)" fill="#42e8e0" opacity="0.4"/>
          <g id="Group_627" data-name="Group 627">
            <g id="Group_626" data-name="Group 626">
              <path id="Path_577" data-name="Path 577" d="M337.086,120.231v-7.372l-2.038-1.133c-.576,3.479-4.671,5.771-8.094,6.247l-23.312,13.633-10.173,3.674-32.475-16.76.752-.433c-2.776-1.3-4.271-4.262-5.771-6.967l-2.187,1.3-1.3.365v7.561h0c0,1.444.952,2.888,2.857,3.987l32.534,18.784a15.292,15.292,0,0,0,13.816,0l32.533-18.783c1.873-1.082,2.826-2.5,2.857-3.918,0-.064,0-.128-.005-.191Z" transform="translate(-252.489 -88.439)" fill="url(#linear-gradient-11)"/>
              <path id="Path_578" data-name="Path 578" d="M310.374,117.7l-23.312,13.633-8.855,3.2V144.5a14.121,14.121,0,0,0,6.91-1.65l32.533-18.783c1.873-1.082,2.826-2.5,2.857-3.918,0-.064,0-.128-.005-.191l.005,0v-7.372l-1.864-1.036h-.194C317.811,114.972,313.765,117.226,310.374,117.7Z" transform="translate(-235.908 -88.164)" fill="#0f054c" opacity="0.3"/>
              <g id="Group_624" data-name="Group 624">
                <path id="Path_579" data-name="Path 579" d="M287.88,144.524l-32.534-18.784c-3.809-2.2-3.809-5.778,0-7.977l32.533-18.783a15.291,15.291,0,0,1,13.816,0l32.534,18.783c3.809,2.2,3.809,5.778,0,7.977L301.7,144.524A15.292,15.292,0,0,1,287.88,144.524Z" transform="translate(-252.489 -97.33)" fill="url(#linear-gradient-13)"/>
              </g>
              <g id="Group_625" data-name="Group 625" transform="translate(0.002 24.879)">
                <path id="Path_580" data-name="Path 580" d="M334.228,115.987,301.7,134.771a15.292,15.292,0,0,1-13.816,0l-32.535-18.785a5.131,5.131,0,0,1-2.822-3.53c-.224,1.594.715,3.232,2.822,4.449l32.535,18.783a15.291,15.291,0,0,0,13.816,0l32.533-18.783c2.107-1.217,3.046-2.854,2.822-4.447A5.131,5.131,0,0,1,334.228,115.987Z" transform="translate(-252.49 -112.457)" fill="#fff"/>
              </g>
            </g>
          </g>
        </g>
      </g>
    </g>
    <g id="Group_638" data-name="Group 638" transform="translate(208.73 330.854)">
      <g id="Group_637" data-name="Group 637">
        <path id="Path_581" data-name="Path 581" d="M250.632,273.078a12.548,12.548,0,0,1-6.132-1.464L211.966,252.83c-1.689-.974-2.62-2.289-2.62-3.7s.929-2.73,2.62-3.707L244.5,226.638a13.581,13.581,0,0,1,12.263,0L289.3,245.42c1.691.975,2.62,2.293,2.62,3.706s-.929,2.732-2.62,3.706l-32.533,18.783A12.548,12.548,0,0,1,250.632,273.078Zm-5.847-1.959a12.929,12.929,0,0,0,11.694,0l32.533-18.781c1.507-.87,2.334-2.01,2.334-3.212s-.827-2.34-2.334-3.21l-32.533-18.785a12.938,12.938,0,0,0-11.7,0l-32.533,18.783c-1.5.87-2.334,2.012-2.334,3.212s.829,2.34,2.334,3.211Z" transform="translate(-208.333 -200.222)" fill="#42e8e0"/>
        <g id="Group_636" data-name="Group 636">
          <path id="Path_582" data-name="Path 582" d="M293.327,240.4V229.262l-2.038-1.133c-.576,3.479-4.671,5.771-8.094,6.247l-23.312,13.633-10.173,3.673-32.474-16.758.75-.433c-2.776-1.3-4.271-4.263-5.771-6.969l-2.186,1.3-1.3.365V240.52h0c0,1.446.952,2.89,2.857,3.988l32.534,18.785a15.291,15.291,0,0,0,13.816,0l32.534-18.783c1.873-1.082,2.826-2.5,2.855-3.919,0-.063,0-.127,0-.189Z" transform="translate(-208.73 -198.708)" fill="#42e8e0" opacity="0.4"/>
          <g id="Group_635" data-name="Group 635">
            <g id="Group_634" data-name="Group 634">
              <path id="Path_583" data-name="Path 583" d="M293.327,232.9v-7.372l-2.038-1.133c-.576,3.479-4.671,5.77-8.094,6.247L259.883,244.28l-10.173,3.673-32.474-16.758.75-.433c-2.776-1.3-4.271-4.263-5.771-6.969l-2.186,1.3-1.3.365v7.559h0c0,1.446.952,2.89,2.857,3.988l32.534,18.785a15.291,15.291,0,0,0,13.816,0l32.534-18.783c1.873-1.082,2.826-2.5,2.855-3.919,0-.063,0-.127,0-.189Z" transform="translate(-208.73 -201.113)" fill="url(#linear-gradient-11)"/>
              <path id="Path_584" data-name="Path 584" d="M266.614,230.371,243.3,244l-8.854,3.2v9.967a14.137,14.137,0,0,0,6.908-1.65l32.534-18.783c1.873-1.082,2.826-2.5,2.855-3.919,0-.063,0-.127,0-.189l0,0v-7.372l-1.862-1.036h-.2C274.053,227.645,270.005,229.9,266.614,230.371Z" transform="translate(-192.149 -200.837)" fill="#0f054c" opacity="0.3"/>
              <g id="Group_631" data-name="Group 631">
                <path id="Path_585" data-name="Path 585" d="M244.121,257.2l-32.534-18.783c-3.809-2.2-3.809-5.778,0-7.977l32.533-18.783a15.3,15.3,0,0,1,13.817,0l32.533,18.783c3.809,2.2,3.811,5.778,0,7.977L257.937,257.2A15.281,15.281,0,0,1,244.121,257.2Z" transform="translate(-208.73 -210.003)" fill="url(#linear-gradient-13)"/>
              </g>
              <g id="Group_632" data-name="Group 632" transform="translate(8.967 5.06)">
                <path id="Path_586" data-name="Path 586" d="M247.514,251.8a11.324,11.324,0,0,1-5.541-1.322L216.557,235.8a3.569,3.569,0,0,1,0-6.727L241.973,214.4a12.267,12.267,0,0,1,11.081,0l25.416,14.676a3.569,3.569,0,0,1,0,6.727l-25.418,14.673A11.313,11.313,0,0,1,247.514,251.8Zm0-38.159a10.742,10.742,0,0,0-5.257,1.257l-25.416,14.674a3.013,3.013,0,0,0,0,5.737l25.418,14.676a11.62,11.62,0,0,0,10.508,0l25.419-14.674a3.014,3.014,0,0,0,0-5.737L252.767,214.9A10.734,10.734,0,0,0,247.514,213.641Z" transform="translate(-214.182 -213.08)" fill="#5351af"/>
              </g>
              <g id="Group_633" data-name="Group 633" transform="translate(0.002 24.879)">
                <path id="Path_587" data-name="Path 587" d="M290.471,228.66l-32.534,18.783a15.281,15.281,0,0,1-13.816,0L211.586,228.66a5.136,5.136,0,0,1-2.822-3.53c-.224,1.594.715,3.232,2.822,4.447l32.534,18.785a15.291,15.291,0,0,0,13.816,0l32.534-18.783c2.105-1.217,3.044-2.855,2.822-4.447A5.13,5.13,0,0,1,290.471,228.66Z" transform="translate(-208.731 -225.13)" fill="#fff"/>
              </g>
            </g>
          </g>
        </g>
      </g>
    </g>
    <path id="Path_588" data-name="Path 588" d="M427.165,171.91a4.97,4.97,0,0,1-2.479-.706l-45.363-26.191a7.945,7.945,0,0,1-3.429-8.554,4.7,4.7,0,0,1,2.681-3.255,4.537,4.537,0,0,1,4.046.4l45.362,26.191a7.939,7.939,0,0,1,3.433,8.554,4.712,4.712,0,0,1-2.684,3.255A4.129,4.129,0,0,1,427.165,171.91Zm-47.023-38.441a3.514,3.514,0,0,0-1.35.263,4.161,4.161,0,0,0-2.35,2.877,7.347,7.347,0,0,0,3.168,7.911l45.363,26.191a4,4,0,0,0,3.543.365,4.156,4.156,0,0,0,2.35-2.878,7.344,7.344,0,0,0-3.168-7.911L382.335,134.1A4.387,4.387,0,0,0,380.142,133.469Z" transform="translate(107.621 71.138)" fill="#42e8e0"/>
    <path id="Path_589" data-name="Path 589" d="M458.773,354.264a15.357,15.357,0,0,1-7.51-1.793L320.543,277c-2.059-1.187-3.194-2.786-3.194-4.5s1.135-3.312,3.194-4.5l27.564-15.891.285.5-27.562,15.89c-1.877,1.084-2.91,2.5-2.91,4.007s1.033,2.921,2.91,4l130.72,75.472a15.983,15.983,0,0,0,14.446,0l95.669-55.033.285.5-95.668,55.033A15.351,15.351,0,0,1,458.773,354.264Z" transform="translate(70.03 147.997)" fill="#42e8e0"/>
    <g id="Group_639" data-name="Group 639" transform="translate(220.028 205.066)">
      <path id="Path_590" data-name="Path 590" d="M258.476,183.5a14.723,14.723,0,0,1-7.2-1.717L218.745,163c-2.028-1.171-3.146-2.765-3.146-4.487s1.118-3.316,3.146-4.487l32.533-18.785a15.936,15.936,0,0,1,14.391,0L298.2,154.025c2.028,1.171,3.145,2.765,3.145,4.487s-1.117,3.316-3.145,4.488l-32.533,18.783A14.718,14.718,0,0,1,258.476,183.5Zm-6.622-2.715a14.656,14.656,0,0,0,13.242,0L297.628,162c1.658-.956,2.569-2.2,2.569-3.49s-.913-2.533-2.569-3.489L265.1,136.239a14.656,14.656,0,0,0-13.242,0l-32.533,18.783c-1.658.957-2.569,2.2-2.569,3.49s.911,2.533,2.569,3.49Z" transform="translate(-215.599 -133.524)" fill="#0f054c"/>
    </g>
    <g id="Group_640" data-name="Group 640" transform="translate(327.715 430.758)">
      <path id="Path_591" data-name="Path 591" d="M323.948,320.723a14.7,14.7,0,0,1-7.2-1.719L284.219,300.22c-2.03-1.169-3.146-2.763-3.146-4.485s1.117-3.317,3.145-4.487l32.533-18.784a15.915,15.915,0,0,1,14.391,0l32.536,18.783c2.026,1.169,3.145,2.763,3.145,4.487s-1.118,3.316-3.145,4.485L331.144,319A14.724,14.724,0,0,1,323.948,320.723Zm0-48.842a13.53,13.53,0,0,0-6.618,1.579l-32.533,18.783c-1.656.959-2.569,2.2-2.569,3.492s.913,2.533,2.569,3.49l32.534,18.785a14.661,14.661,0,0,0,13.242,0L363.1,299.225c1.656-.957,2.567-2.2,2.567-3.49s-.911-2.533-2.567-3.492l-32.534-18.781A13.545,13.545,0,0,0,323.945,271.882Z" transform="translate(-281.073 -270.745)" fill="#03002d"/>
    </g>
    <path id="Path_592" data-name="Path 592" d="M295.4,278.274a9.078,9.078,0,0,1-4.543-1.214l-43.174-24.979.286-.5,43.174,24.98a8.537,8.537,0,0,0,8.515,0l61.74-35.63.286.493-61.742,35.63A9.082,9.082,0,0,1,295.4,278.274Z" transform="translate(25.116 140.794)" fill="#42e8e0"/>
    <g id="Group_641" data-name="Group 641" transform="translate(683.381 140.373)">
      <circle id="Ellipse_398" data-name="Ellipse 398" cx="5.448" cy="5.448" r="5.448" fill="#42e8e0" opacity="0.4"/>
      <circle id="Ellipse_399" data-name="Ellipse 399" cx="2.364" cy="2.364" r="2.364" transform="translate(3.084 3.084)" fill="#42e8e0" opacity="0.4"/>
    </g>
    <g id="Group_642" data-name="Group 642" transform="translate(600.737 45.195)">
      <circle id="Ellipse_400" data-name="Ellipse 400" cx="5.448" cy="5.448" r="5.448" transform="translate(0)" fill="#42e8e0" opacity="0.4"/>
      <circle id="Ellipse_401" data-name="Ellipse 401" cx="2.364" cy="2.364" r="2.364" transform="translate(3.084 3.084)" fill="#42e8e0" opacity="0.4"/>
    </g>
    <g id="Group_643" data-name="Group 643" transform="translate(755.475 159.415)">
      <circle id="Ellipse_402" data-name="Ellipse 402" cx="5.448" cy="5.448" r="5.448" transform="translate(0)" fill="#42e8e0" opacity="0.4"/>
      <circle id="Ellipse_403" data-name="Ellipse 403" cx="2.364" cy="2.364" r="2.364" transform="translate(3.084 3.084)" fill="#42e8e0" opacity="0.4"/>
    </g>
  </g>
</svg>
